<svg width="116" height="116" viewBox="0 0 116 116" fill="none" xmlns="http://www.w3.org/2000/svg">
<circle cx="39.5176" cy="39.5176" r="39.5176" transform="matrix(-1 0 0 1 81.1924 1.85352)" fill="#FFCC19"/>
<rect width="32.6187" height="32.6187" rx="8.15466" transform="matrix(-1 0 0 1 113.922 72.1743)" fill="#4F93F8"/>
<rect x="35.6035" y="17.3794" width="82.2557" height="82.2557" rx="18.0556" transform="rotate(12.9509 35.6035 17.3794)" fill="#FF793F"/>
<rect x="37.8838" y="55.3896" width="5.0706" height="21.5801" rx="2.5353" transform="rotate(12.9509 37.8838 55.3896)" fill="white"/>
<rect x="62.0117" y="60.938" width="5.0706" height="21.5801" rx="2.5353" transform="rotate(12.9509 62.0117 60.938)" fill="white"/>
<rect x="48.6289" y="63.9038" width="5.07073" height="15.6906" rx="2.53537" transform="rotate(12.9509 48.6289 63.9038)" fill="white"/>
<rect x="76.6807" y="52.3833" width="5.0706" height="33.2041" rx="2.5353" transform="rotate(12.9509 76.6807 52.3833)" fill="white"/>
<rect x="86.1396" y="66.4863" width="5.0706" height="21.5801" rx="2.5353" transform="rotate(12.9509 86.1396 66.4863)" fill="white"/>
<rect x="43.207" y="59.856" width="5.0706" height="18.42" rx="2.5353" transform="rotate(12.9509 43.207 59.856)" fill="white"/>
<rect x="69.2217" y="57.2031" width="5.0706" height="26.8353" rx="2.5353" transform="rotate(12.9509 69.2217 57.2031)" fill="white"/>
<rect x="55.2715" y="62.6304" width="5.0706" height="18.42" rx="2.5353" transform="rotate(12.9509 55.2715 62.6304)" fill="white"/>
<rect x="81.2852" y="59.9775" width="5.0706" height="26.8353" rx="2.5353" transform="rotate(12.9509 81.2852 59.9775)" fill="white"/>
<rect x="90.8516" y="73.6138" width="5.07073" height="15.6906" rx="2.53537" transform="rotate(12.9509 90.8516 73.6138)" fill="white"/>
<line x1="90.5337" y1="95.1219" x2="32.3953" y2="81.752" stroke="white" stroke-width="1.11858" stroke-linecap="round" stroke-dasharray="4.47 4.47"/>
<line x1="100.291" y1="52.6956" x2="42.1521" y2="39.3257" stroke="white" stroke-width="1.11858" stroke-linecap="round" stroke-dasharray="4.47 4.47"/>
<path d="M26.9374 37.1319L16.9905 81.6059C14.9305 90.8162 20.8309 99.9757 30.1693 102.064L75.2618 112.15C84.6002 114.238 93.8404 108.465 95.9003 99.2547L105.847 54.7807C107.907 45.5704 102.007 36.4109 92.6685 34.3222L47.576 24.2369" stroke="black" stroke-width="4" stroke-linecap="round"/>
<rect x="1.76758" y="1.93604" width="111.624" height="27.8867" rx="13.9434" fill="#8C0707" stroke="black" stroke-width="3"/>
<path d="M89.0107 11.6523V20.3796H87.1953V11.6523H89.0107Z" fill="white"/>
<path d="M85.7411 11.6523V20.3796H83.9258V11.6523H85.7411Z" fill="white"/>
<path d="M79.5233 20.5071C78.8614 20.5071 78.289 20.3664 77.806 20.0852C77.3259 19.8011 76.9552 19.4062 76.6938 18.9005C76.4324 18.392 76.3018 17.8025 76.3018 17.1321C76.3018 16.4559 76.4324 15.865 76.6938 15.3593C76.9552 14.8508 77.3259 14.4559 77.806 14.1747C78.289 13.8906 78.8614 13.7485 79.5233 13.7485C80.1853 13.7485 80.7563 13.8906 81.2364 14.1747C81.7194 14.4559 82.0915 14.8508 82.3529 15.3593C82.6143 15.865 82.7449 16.4559 82.7449 17.1321C82.7449 17.8025 82.6143 18.392 82.3529 18.9005C82.0915 19.4062 81.7194 19.8011 81.2364 20.0852C80.7563 20.3664 80.1853 20.5071 79.5233 20.5071ZM79.5319 19.1008C79.833 19.1008 80.0844 19.0156 80.2861 18.8451C80.4878 18.6718 80.6398 18.436 80.7421 18.1377C80.8472 17.8394 80.8998 17.5 80.8998 17.1193C80.8998 16.7386 80.8472 16.3991 80.7421 16.1008C80.6398 15.8025 80.4878 15.5667 80.2861 15.3934C80.0844 15.2201 79.833 15.1335 79.5319 15.1335C79.2279 15.1335 78.9722 15.2201 78.7648 15.3934C78.5603 15.5667 78.4055 15.8025 78.3003 16.1008C78.1981 16.3991 78.1469 16.7386 78.1469 17.1193C78.1469 17.5 78.1981 17.8394 78.3003 18.1377C78.4055 18.436 78.5603 18.6718 78.7648 18.8451C78.9722 19.0156 79.2279 19.1008 79.5319 19.1008Z" fill="white"/>
<path d="M68.9365 20.3796V11.6523H72.3797C73.0416 11.6523 73.6056 11.7788 74.0715 12.0316C74.5374 12.2816 74.8925 12.6296 75.1368 13.0756C75.384 13.5188 75.5075 14.0302 75.5075 14.6097C75.5075 15.1893 75.3825 15.7006 75.1325 16.1438C74.8825 16.587 74.5203 16.9322 74.0459 17.1793C73.5743 17.4265 73.0033 17.5501 72.3328 17.5501H70.1382V16.0714H72.0345C72.3896 16.0714 72.6823 16.0103 72.9124 15.8881C73.1453 15.7631 73.3186 15.5913 73.4323 15.3725C73.5487 15.1509 73.607 14.8967 73.607 14.6097C73.607 14.32 73.5487 14.0671 73.4323 13.8512C73.3186 13.6325 73.1453 13.4634 72.9124 13.3441C72.6794 13.2219 72.384 13.1609 72.026 13.1609H70.7817V20.3796H68.9365Z" fill="white"/>
<path d="M61.9356 20.5071C61.2623 20.5071 60.6828 20.3707 60.197 20.098C59.714 19.8224 59.3419 19.4332 59.0805 18.9304C58.8192 18.4247 58.6885 17.8267 58.6885 17.1363C58.6885 16.463 58.8192 15.8721 59.0805 15.3636C59.3419 14.8551 59.7098 14.4588 60.1842 14.1747C60.6615 13.8906 61.2211 13.7485 61.8632 13.7485C62.295 13.7485 62.697 13.8181 63.0692 13.9573C63.4442 14.0937 63.7709 14.2997 64.0493 14.5752C64.3305 14.8508 64.5493 15.1974 64.7055 15.615C64.8618 16.0298 64.9399 16.5156 64.9399 17.0724V17.571H59.4129V16.446H63.2311C63.2311 16.1846 63.1743 15.9531 63.0606 15.7514C62.947 15.5497 62.7893 15.392 62.5876 15.2784C62.3888 15.1619 62.1572 15.1036 61.893 15.1036C61.6175 15.1036 61.3731 15.1676 61.1601 15.2954C60.9498 15.4204 60.7851 15.5894 60.6657 15.8025C60.5464 16.0127 60.4854 16.2471 60.4825 16.5056V17.5752C60.4825 17.8991 60.5422 18.1789 60.6615 18.4147C60.7836 18.6505 60.9555 18.8323 61.1771 18.9602C61.3987 19.088 61.6615 19.1519 61.9655 19.1519C62.1672 19.1519 62.3518 19.1235 62.5194 19.0667C62.6871 19.0099 62.8305 18.9247 62.9498 18.811C63.0692 18.6974 63.1601 18.5582 63.2226 18.3934L64.9015 18.5042C64.8163 18.9076 64.6416 19.2599 64.3774 19.561C64.116 19.8593 63.778 20.0923 63.3632 20.2599C62.9513 20.4247 62.4754 20.5071 61.9356 20.5071Z" fill="white"/>
<path d="M53.2802 16.5955V20.3796H51.4648V11.6523H53.229V14.989H53.3058C53.4535 14.6026 53.6921 14.3001 54.0217 14.0813C54.3512 13.8597 54.7646 13.7489 55.2617 13.7489C55.7163 13.7489 56.1126 13.8484 56.4506 14.0472C56.7916 14.2433 57.0558 14.5259 57.2433 14.8952C57.4336 15.2617 57.5273 15.7006 57.5245 16.212V20.3796H55.7092V16.5359C55.712 16.1325 55.6097 15.8185 55.4023 15.5941C55.1978 15.3697 54.9109 15.2575 54.5415 15.2575C54.2944 15.2575 54.0756 15.31 53.8853 15.4151C53.6978 15.5202 53.5501 15.6737 53.4421 15.8754C53.337 16.0742 53.283 16.3143 53.2802 16.5955Z" fill="white"/>
<path d="M50.142 13.8338V15.1974H46.2002V13.8338H50.142ZM47.0951 12.2656H48.9104V18.3679C48.9104 18.5355 48.936 18.6662 48.9871 18.7599C49.0383 18.8509 49.1093 18.9148 49.2002 18.9517C49.2939 18.9886 49.4019 19.0071 49.5241 19.0071C49.6093 19.0071 49.6945 19 49.7797 18.9858C49.865 18.9688 49.9303 18.956 49.9758 18.9474L50.2613 20.2983C50.1704 20.3267 50.0425 20.3594 49.8778 20.3963C49.713 20.4361 49.5127 20.4602 49.2769 20.4688C48.8394 20.4858 48.4559 20.4276 48.1263 20.294C47.7996 20.1605 47.5454 19.9531 47.3635 19.6719C47.1817 19.3906 47.0922 19.0355 47.0951 18.6065V12.2656Z" fill="white"/>
<path d="M34.9668 20.3794L33.1855 13.834H35.0222L36.0364 18.2317H36.0961L37.1529 13.834H38.9554L40.0293 18.2061H40.0847L41.0819 13.834H42.9142L41.1373 20.3794H39.2154L38.0904 16.263H38.0094L36.8844 20.3794H34.9668Z" fill="white"/>
<path d="M29.5333 20.5071C28.86 20.5071 28.2805 20.3707 27.7947 20.098C27.3117 19.8224 26.9395 19.4332 26.6782 18.9304C26.4168 18.4247 26.2861 17.8267 26.2861 17.1363C26.2861 16.463 26.4168 15.8721 26.6782 15.3636C26.9395 14.8551 27.3074 14.4588 27.7819 14.1747C28.2591 13.8906 28.8188 13.7485 29.4608 13.7485C29.8927 13.7485 30.2947 13.8181 30.6668 13.9573C31.0418 14.0937 31.3685 14.2997 31.6469 14.5752C31.9282 14.8508 32.1469 15.1974 32.3032 15.615C32.4594 16.0298 32.5376 16.5156 32.5376 17.0724V17.571H27.0106V16.446H30.8287C30.8287 16.1846 30.7719 15.9531 30.6583 15.7514C30.5447 15.5497 30.387 15.392 30.1853 15.2784C29.9864 15.1619 29.7549 15.1036 29.4907 15.1036C29.2151 15.1036 28.9708 15.1676 28.7577 15.2954C28.5475 15.4204 28.3827 15.5894 28.2634 15.8025C28.1441 16.0127 28.083 16.2471 28.0802 16.5056V17.5752C28.0802 17.8991 28.1398 18.1789 28.2591 18.4147C28.3813 18.6505 28.5532 18.8323 28.7748 18.9602C28.9964 19.088 29.2591 19.1519 29.5631 19.1519C29.7648 19.1519 29.9495 19.1235 30.1171 19.0667C30.2847 19.0099 30.4282 18.9247 30.5475 18.811C30.6668 18.6974 30.7577 18.5582 30.8202 18.3934L32.4992 18.5042C32.414 18.9076 32.2393 19.2599 31.9751 19.561C31.7137 19.8593 31.3756 20.0923 30.9608 20.2599C30.5489 20.4247 30.0731 20.5071 29.5333 20.5071Z" fill="white"/>
<path d="M23.2811 20.3792V13.8337H25.0964V20.3792H23.2811ZM24.193 12.99C23.9231 12.99 23.6916 12.9005 23.4984 12.7215C23.3081 12.5397 23.2129 12.3224 23.2129 12.0695C23.2129 11.8195 23.3081 11.605 23.4984 11.426C23.6916 11.2442 23.9231 11.1533 24.193 11.1533C24.4629 11.1533 24.693 11.2442 24.8833 11.426C25.0765 11.605 25.1731 11.8195 25.1731 12.0695C25.1731 12.3224 25.0765 12.5397 24.8833 12.7215C24.693 12.9005 24.4629 12.99 24.193 12.99Z" fill="white"/>
<path d="M15.915 11.6523L18.0243 18.283H18.1053L20.2189 11.6523H22.2644L19.2559 20.3796H16.878L13.8652 11.6523H15.915Z" fill="white"/>
</svg>
