<svg width="122" height="134" viewBox="0 0 122 134" fill="none" xmlns="http://www.w3.org/2000/svg">
<circle cx="63.7505" cy="55.3125" r="54.4692" fill="#FF79C2"/>
<circle cx="37.6448" cy="36.1765" r="28.8479" fill="#5ADEE6"/>
<path fill-rule="evenodd" clip-rule="evenodd" d="M110.747 96.2656C109.864 94.9089 105.475 87.5584 108.083 79.2981C108.833 76.9234 109.908 73.4661 111.507 69.7559C113.692 64.6869 109.666 58.976 103.691 58.7891C101.2 58.7112 98.8242 59.6911 97.2506 61.532C95.4791 63.6055 93.9488 65.9547 92.9022 68.4761C92.1458 70.2987 92.0387 71.8841 92.8492 72.85C93.6069 73.7531 95.0208 73.7872 96.7928 73.1892C99.2459 72.3611 100.523 69.6727 101.079 67.2832C101.369 66.0381 102.615 65.2624 103.86 65.5522C105.105 65.8419 105.88 67.0879 105.59 68.3329C104.692 72.1938 102.237 76.24 98.2746 77.5783C94.1814 78.96 91.051 77.9139 89.3006 75.8284C87.6047 73.8069 87.0407 70.5133 88.6238 66.7001C89.8552 63.7334 91.645 60.9622 93.7288 58.5232C96.2034 55.6273 99.9187 54.0361 103.835 54.1587C113.207 54.4517 119.188 63.64 115.762 71.5896C114.236 75.1283 113.216 78.4278 112.5 80.6925C110.219 87.9198 114.482 93.4114 114.938 94.2264C115.568 95.3504 115.179 96.1915 115.069 96.4331C114.757 97.1171 114.233 97.5646 113.459 97.7368C113.152 97.8054 112.566 97.9094 111.81 97.4975C111.299 97.2181 110.934 96.7732 110.747 96.2656ZM112.969 93.1489C113.231 93.1468 113.552 93.196 113.917 93.3737C113.612 93.2279 113.289 93.1549 112.969 93.1489Z" fill="#241F20"/>
<path fill-rule="evenodd" clip-rule="evenodd" d="M95.4195 52.0881C91.7476 44.0331 83.798 37.0482 75.211 33.2029C69.5937 30.6866 63.693 29.5052 58.5306 30.3788C56.4912 30.7239 54.8673 31.833 54.0613 33.1956C53.6705 33.8572 53.47 34.5737 53.6621 35.2381C53.8187 35.7803 54.2428 36.2404 54.8869 36.6223C55.8814 37.2113 57.2957 37.5744 59.1714 37.6876C69.3271 38.305 79.3585 44.9059 83.0932 53.4822C83.6038 54.6545 83.0664 56.0205 81.8946 56.5308C80.7223 57.0414 79.3563 56.504 78.8459 55.3323C75.7415 48.2031 67.3321 42.8245 58.8904 42.3116C52.7884 41.941 49.9978 39.2439 49.2116 36.5243C48.6815 34.6878 48.9935 32.6655 50.0741 30.8383C51.4744 28.4696 54.2132 26.4118 57.7579 25.8114C63.7393 24.7985 70.5954 26.0596 77.1045 28.9748C86.7068 33.2755 95.5283 41.1591 99.6347 50.1664C100.165 51.3299 99.6515 52.7046 98.488 53.2348C97.3251 53.7648 95.9497 53.2516 95.4195 52.0881Z" fill="#241F20"/>
<path fill-rule="evenodd" clip-rule="evenodd" d="M87.4532 75.8112C85.7584 86.0987 78.6426 94.7156 68.2908 95.4338C64.8685 95.6716 61.5601 94.2926 58.7815 91.8733C54.9332 88.5216 52.1232 83.1558 51.4974 77.9938C50.6027 70.6191 54.2701 64.7529 59.8189 60.8888C65.1047 57.2087 72.1096 55.4029 78.1304 55.8647C79.4049 55.9622 80.3606 57.0765 80.2632 58.351C80.1657 59.6255 79.0514 60.5812 77.7768 60.4831C72.7418 60.0974 66.8858 61.6132 62.4661 64.6904C58.309 67.5851 55.426 71.9119 56.0957 77.436C56.5892 81.5038 58.7907 85.7385 61.8234 88.3798C63.6327 89.9553 65.7424 90.9672 67.9705 90.8129C76.158 90.2445 81.5421 83.195 82.8826 75.0586C83.09 73.7969 84.2826 72.9421 85.5442 73.1496C86.8054 73.3578 87.6608 74.5503 87.4532 75.8112Z" fill="#241F20"/>
<path fill-rule="evenodd" clip-rule="evenodd" d="M71.7032 59.8524C69.8518 68.0662 73.449 77.9974 82.5655 81.3726C83.7641 81.8167 84.3769 83.1499 83.9336 84.349C83.4895 85.5476 82.1556 86.1605 80.9571 85.717C69.5342 81.4875 64.8644 69.1261 67.1843 58.8336C67.465 57.5865 68.7058 56.8021 69.9531 57.0835C71.1995 57.3644 71.9839 58.6052 71.7032 59.8524Z" fill="#241F20"/>
<path fill-rule="evenodd" clip-rule="evenodd" d="M62.8812 63.7027C61.2088 72.8791 65.0925 84.1429 74.4777 88.1724C75.6525 88.6768 76.1967 90.0403 75.6926 91.2145C75.188 92.3896 73.825 92.9332 72.6503 92.4288C61.2659 87.5414 56.2956 74.0023 58.3237 62.8716C58.5534 61.6145 59.7607 60.7793 61.0178 61.0087C62.2756 61.2379 63.1107 62.4449 62.8812 63.7027Z" fill="#241F20"/>
<path d="M71.7759 105.836C43.8821 114.812 13.9934 99.4754 5.01778 71.5816C-3.95788 43.6877 11.3783 13.7991 39.2722 4.82345C67.166 -4.15221 97.0547 11.184 106.03 39.0779" stroke="black" stroke-width="4" stroke-linecap="round"/>
<path d="M35.3096 39.2505V47.7231M35.3096 19.5513V28.0239" stroke="black" stroke-width="4" stroke-linecap="round"/>
<path d="M30.4488 36.4438L23.1112 40.6802M47.5088 26.5942L40.1713 30.8306" stroke="black" stroke-width="4" stroke-linecap="round"/>
<path d="M30.4488 30.8306L23.1112 26.5942M47.5088 40.6802L40.1713 36.4438" stroke="black" stroke-width="4" stroke-linecap="round"/>
<rect x="8.76758" y="103.645" width="111.624" height="27.8867" rx="13.9434" fill="#8C0707" stroke="black" stroke-width="3"/>
<path d="M104.162 122.216C103.489 122.216 102.909 122.079 102.424 121.806C101.941 121.531 101.568 121.142 101.307 120.639C101.046 120.133 100.915 119.535 100.915 118.845C100.915 118.172 101.046 117.581 101.307 117.072C101.568 116.564 101.936 116.167 102.411 115.883C102.888 115.599 103.448 115.457 104.09 115.457C104.522 115.457 104.924 115.527 105.296 115.666C105.671 115.802 105.997 116.008 106.276 116.284C106.557 116.559 106.776 116.906 106.932 117.324C107.088 117.738 107.166 118.224 107.166 118.781V119.279H101.639V118.154H105.458C105.458 117.893 105.401 117.662 105.287 117.46C105.174 117.258 105.016 117.1 104.814 116.987C104.615 116.87 104.384 116.812 104.12 116.812C103.844 116.812 103.6 116.876 103.387 117.004C103.176 117.129 103.012 117.298 102.892 117.511C102.773 117.721 102.712 117.956 102.709 118.214V119.284C102.709 119.608 102.769 119.887 102.888 120.123C103.01 120.359 103.182 120.541 103.404 120.669C103.625 120.797 103.888 120.86 104.192 120.86C104.394 120.86 104.578 120.832 104.746 120.775C104.914 120.718 105.057 120.633 105.176 120.52C105.296 120.406 105.387 120.267 105.449 120.102L107.128 120.213C107.043 120.616 106.868 120.968 106.604 121.27C106.343 121.568 106.005 121.801 105.59 121.968C105.178 122.133 104.702 122.216 104.162 122.216Z" fill="white"/>
<path d="M96.9903 122.216C96.317 122.216 95.7375 122.079 95.2517 121.806C94.7687 121.531 94.3966 121.142 94.1352 120.639C93.8738 120.133 93.7432 119.535 93.7432 118.845C93.7432 118.172 93.8738 117.581 94.1352 117.072C94.3966 116.564 94.7645 116.167 95.2389 115.883C95.7162 115.599 96.2758 115.457 96.9179 115.457C97.3497 115.457 97.7517 115.527 98.1238 115.666C98.4988 115.802 98.8255 116.008 99.104 116.284C99.3852 116.559 99.604 116.906 99.7602 117.324C99.9165 117.738 99.9946 118.224 99.9946 118.781V119.279H94.4676V118.154H98.2858C98.2858 117.893 98.229 117.662 98.1153 117.46C98.0017 117.258 97.844 117.1 97.6423 116.987C97.4434 116.87 97.2119 116.812 96.9477 116.812C96.6721 116.812 96.4278 116.876 96.2148 117.004C96.0045 117.129 95.8398 117.298 95.7204 117.511C95.6011 117.721 95.54 117.956 95.5372 118.214V119.284C95.5372 119.608 95.5969 119.887 95.7162 120.123C95.8383 120.359 96.0102 120.541 96.2318 120.669C96.4534 120.797 96.7162 120.86 97.0201 120.86C97.2219 120.86 97.4065 120.832 97.5741 120.775C97.7417 120.718 97.8852 120.633 98.0045 120.52C98.1238 120.406 98.2148 120.267 98.2773 120.102L99.9562 120.213C99.871 120.616 99.6963 120.968 99.4321 121.27C99.1707 121.568 98.8326 121.801 98.4179 121.968C98.0059 122.133 97.5301 122.216 96.9903 122.216Z" fill="white"/>
<path d="M89.4023 122.088V115.542H91.1623V116.685H91.2305C91.3498 116.278 91.5501 115.971 91.8313 115.764C92.1126 115.554 92.4364 115.449 92.8029 115.449C92.8938 115.449 92.9918 115.454 93.0969 115.466C93.2021 115.477 93.2944 115.493 93.3739 115.513V117.123C93.2887 117.098 93.1708 117.075 93.0202 117.055C92.8697 117.035 92.7319 117.025 92.6069 117.025C92.3398 117.025 92.1012 117.084 91.891 117.2C91.6836 117.314 91.5188 117.473 91.3967 117.677C91.2773 117.882 91.2177 118.118 91.2177 118.385V122.088H89.4023Z" fill="white"/>
<path d="M88.2927 115.543V116.906H84.2529V115.543H88.2927ZM85.1777 122.088V115.07C85.1777 114.595 85.27 114.202 85.4546 113.889C85.6421 113.577 85.8978 113.342 86.2217 113.186C86.5455 113.03 86.9134 112.952 87.3254 112.952C87.6038 112.952 87.858 112.973 88.0882 113.016C88.3211 113.058 88.4944 113.097 88.608 113.131L88.2842 114.494C88.2132 114.472 88.1251 114.45 88.02 114.43C87.9177 114.41 87.8126 114.401 87.7046 114.401C87.4376 114.401 87.2515 114.463 87.1464 114.588C87.0413 114.71 86.9887 114.882 86.9887 115.104V122.088H85.1777Z" fill="white"/>
<path d="M77.0859 122.088V115.542H78.8459V116.685H78.9141C79.0334 116.278 79.2337 115.971 79.5149 115.764C79.7962 115.554 80.12 115.449 80.4865 115.449C80.5774 115.449 80.6754 115.454 80.7805 115.466C80.8857 115.477 80.978 115.493 81.0575 115.513V117.123C80.9723 117.098 80.8544 117.075 80.7038 117.055C80.5533 117.035 80.4155 117.025 80.2905 117.025C80.0234 117.025 79.7848 117.084 79.5746 117.2C79.3672 117.314 79.2024 117.473 79.0803 117.677C78.9609 117.882 78.9013 118.118 78.9013 118.385V122.088H77.0859Z" fill="white"/>
<path d="M72.6835 122.216C72.0216 122.216 71.4491 122.075 70.9662 121.794C70.4861 121.51 70.1153 121.115 69.854 120.609C69.5926 120.1 69.4619 119.511 69.4619 118.841C69.4619 118.164 69.5926 117.574 69.854 117.068C70.1153 116.559 70.4861 116.164 70.9662 115.883C71.4491 115.599 72.0216 115.457 72.6835 115.457C73.3454 115.457 73.9165 115.599 74.3966 115.883C74.8795 116.164 75.2517 116.559 75.5131 117.068C75.7744 117.574 75.9051 118.164 75.9051 118.841C75.9051 119.511 75.7744 120.1 75.5131 120.609C75.2517 121.115 74.8795 121.51 74.3966 121.794C73.9165 122.075 73.3454 122.216 72.6835 122.216ZM72.692 120.809C72.9932 120.809 73.2446 120.724 73.4463 120.554C73.648 120.38 73.8 120.145 73.9023 119.846C74.0074 119.548 74.0599 119.208 74.0599 118.828C74.0599 118.447 74.0074 118.108 73.9023 117.809C73.8 117.511 73.648 117.275 73.4463 117.102C73.2446 116.929 72.9932 116.842 72.692 116.842C72.3881 116.842 72.1324 116.929 71.925 117.102C71.7204 117.275 71.5656 117.511 71.4605 117.809C71.3582 118.108 71.3071 118.447 71.3071 118.828C71.3071 119.208 71.3582 119.548 71.4605 119.846C71.5656 120.145 71.7204 120.38 71.925 120.554C72.1324 120.724 72.3881 120.809 72.692 120.809Z" fill="white"/>
<path d="M68.8513 115.543V116.906H64.8115V115.543H68.8513ZM65.7362 122.088V115.07C65.7362 114.595 65.8286 114.202 66.0132 113.889C66.2007 113.577 66.4564 113.342 66.7803 113.186C67.1041 113.03 67.472 112.952 67.884 112.952C68.1624 112.952 68.4166 112.973 68.6468 113.016C68.8797 113.058 69.053 113.097 69.1666 113.131L68.8428 114.494C68.7718 114.472 68.6837 114.45 68.5786 114.43C68.4763 114.41 68.3712 114.401 68.2632 114.401C67.9962 114.401 67.8101 114.463 67.705 114.588C67.5999 114.71 67.5473 114.882 67.5473 115.104V122.088H65.7362Z" fill="white"/>
<path d="M54.9609 124.542V115.542H56.7507V116.642H56.8317C56.9112 116.466 57.0263 116.287 57.1768 116.105C57.3303 115.92 57.5291 115.767 57.7734 115.645C58.0206 115.52 58.3274 115.457 58.6939 115.457C59.1712 115.457 59.6115 115.582 60.0149 115.832C60.4183 116.079 60.7408 116.453 60.9822 116.953C61.2237 117.45 61.3445 118.074 61.3445 118.824C61.3445 119.554 61.2266 120.17 60.9908 120.673C60.7578 121.173 60.4396 121.552 60.0362 121.811C59.6357 122.066 59.1868 122.194 58.6896 122.194C58.3374 122.194 58.0376 122.136 57.7905 122.02C57.5462 121.903 57.3459 121.757 57.1896 121.581C57.0334 121.402 56.9141 121.221 56.8317 121.039H56.7763V124.542H54.9609ZM56.7379 118.815C56.7379 119.204 56.7919 119.544 56.8999 119.833C57.0078 120.123 57.1641 120.349 57.3686 120.511C57.5732 120.67 57.8217 120.75 58.1143 120.75C58.4098 120.75 58.6598 120.669 58.8643 120.507C59.0689 120.342 59.2237 120.115 59.3288 119.825C59.4368 119.532 59.4908 119.196 59.4908 118.815C59.4908 118.437 59.4382 118.105 59.3331 117.818C59.228 117.531 59.0732 117.306 58.8686 117.145C58.6641 116.983 58.4126 116.902 58.1143 116.902C57.8189 116.902 57.5689 116.98 57.3643 117.136C57.1626 117.292 57.0078 117.514 56.8999 117.801C56.7919 118.088 56.7379 118.426 56.7379 118.815Z" fill="white"/>
<path d="M51.6935 119.301V115.542H53.5089V122.088H51.766V120.899H51.6978C51.5501 121.283 51.3043 121.591 50.9606 121.824C50.6197 122.057 50.2035 122.173 49.712 122.173C49.2745 122.173 48.8896 122.074 48.5572 121.875C48.2248 121.676 47.9648 121.393 47.7773 121.027C47.5927 120.66 47.4989 120.221 47.4961 119.71V115.542H49.3114V119.386C49.3143 119.773 49.418 120.078 49.6225 120.302C49.8271 120.527 50.1012 120.639 50.445 120.639C50.6637 120.639 50.8683 120.589 51.0586 120.49C51.2489 120.388 51.4023 120.237 51.5188 120.038C51.6381 119.839 51.6964 119.594 51.6935 119.301Z" fill="white"/>
<path d="M41.8466 118.304V122.088H40.0312V115.542H41.7614V116.697H41.8381C41.983 116.316 42.2259 116.015 42.5668 115.794C42.9077 115.569 43.321 115.457 43.8068 115.457C44.2614 115.457 44.6577 115.556 44.9957 115.755C45.3338 115.954 45.5966 116.238 45.7841 116.608C45.9716 116.974 46.0653 117.412 46.0653 117.92V122.088H44.25V118.244C44.2528 117.843 44.1506 117.531 43.9432 117.306C43.7358 117.079 43.4503 116.966 43.0866 116.966C42.8423 116.966 42.6264 117.018 42.4389 117.123C42.2543 117.228 42.1094 117.382 42.0043 117.583C41.902 117.782 41.8494 118.022 41.8466 118.304Z" fill="white"/>
<path d="M35.3861 124.679C34.798 124.679 34.2938 124.598 33.8733 124.436C33.4557 124.277 33.1233 124.059 32.8762 123.784C32.629 123.508 32.4685 123.199 32.3946 122.855L34.0736 122.629C34.1247 122.76 34.2057 122.882 34.3165 122.995C34.4273 123.109 34.5736 123.2 34.7554 123.268C34.9401 123.339 35.1645 123.375 35.4287 123.375C35.8236 123.375 36.1489 123.278 36.4046 123.085C36.6631 122.895 36.7923 122.575 36.7923 122.126V120.929H36.7156C36.6361 121.11 36.5168 121.282 36.3577 121.444C36.1986 121.606 35.9941 121.738 35.7441 121.841C35.4941 121.943 35.1958 121.994 34.8492 121.994C34.3577 121.994 33.9102 121.88 33.5068 121.653C33.1063 121.423 32.7867 121.072 32.548 120.6C32.3122 120.126 32.1943 119.527 32.1943 118.802C32.1943 118.061 32.3151 117.441 32.5566 116.944C32.798 116.447 33.1191 116.075 33.5196 115.828C33.923 115.581 34.3648 115.457 34.8449 115.457C35.2114 115.457 35.5182 115.52 35.7654 115.645C36.0125 115.767 36.2114 115.92 36.3619 116.105C36.5154 116.287 36.6333 116.466 36.7156 116.642H36.7838V115.542H38.5864V122.152C38.5864 122.708 38.45 123.174 38.1773 123.549C37.9046 123.924 37.5267 124.206 37.0438 124.393C36.5637 124.583 36.0111 124.679 35.3861 124.679ZM35.4244 120.63C35.7171 120.63 35.9642 120.558 36.1659 120.413C36.3705 120.265 36.5267 120.055 36.6347 119.782C36.7455 119.507 36.8009 119.177 36.8009 118.794C36.8009 118.41 36.7469 118.078 36.6389 117.797C36.531 117.512 36.3747 117.292 36.1702 117.136C35.9656 116.98 35.7171 116.902 35.4244 116.902C35.1262 116.902 34.8747 116.983 34.6702 117.145C34.4656 117.304 34.3108 117.525 34.2057 117.809C34.1006 118.093 34.048 118.422 34.048 118.794C34.048 119.172 34.1006 119.498 34.2057 119.774C34.3137 120.047 34.4685 120.258 34.6702 120.409C34.8747 120.556 35.1262 120.63 35.4244 120.63Z" fill="white"/>
<path d="M29.1678 122.088V115.542H30.9831V122.088H29.1678ZM30.0797 114.698C29.8098 114.698 29.5783 114.609 29.3851 114.43C29.1948 114.248 29.0996 114.031 29.0996 113.778C29.0996 113.528 29.1948 113.314 29.3851 113.135C29.5783 112.953 29.8098 112.862 30.0797 112.862C30.3496 112.862 30.5797 112.953 30.7701 113.135C30.9632 113.314 31.0598 113.528 31.0598 113.778C31.0598 114.031 30.9632 114.248 30.7701 114.43C30.5797 114.609 30.3496 114.698 30.0797 114.698Z" fill="white"/>
<path d="M26.0732 115.87C26.0392 115.527 25.8928 115.26 25.6343 115.069C25.3758 114.879 25.0249 114.784 24.5818 114.784C24.2806 114.784 24.0264 114.826 23.819 114.912C23.6116 114.994 23.4525 115.109 23.3417 115.257C23.2338 115.405 23.1798 115.572 23.1798 115.76C23.1741 115.916 23.2068 116.052 23.2778 116.169C23.3517 116.285 23.4525 116.386 23.5803 116.471C23.7082 116.554 23.8559 116.626 24.0235 116.689C24.1911 116.748 24.3701 116.799 24.5605 116.842L25.3445 117.03C25.7252 117.115 26.0747 117.228 26.3928 117.37C26.711 117.513 26.9866 117.687 27.2195 117.895C27.4525 118.102 27.6329 118.346 27.7607 118.628C27.8914 118.909 27.9582 119.231 27.961 119.595C27.9582 120.129 27.8218 120.592 27.5519 120.984C27.2849 121.373 26.8985 121.676 26.3928 121.892C25.89 122.105 25.2835 122.211 24.5732 122.211C23.8687 122.211 23.2551 122.103 22.7323 121.888C22.2124 121.672 21.8062 121.352 21.5136 120.929C21.2238 120.503 21.0718 119.976 21.0576 119.348H22.8431C22.863 119.64 22.9468 119.885 23.0945 120.081C23.2451 120.274 23.4454 120.42 23.6954 120.52C23.9482 120.616 24.2338 120.665 24.5519 120.665C24.8644 120.665 25.1357 120.619 25.3659 120.528C25.5988 120.437 25.7792 120.311 25.907 120.149C26.0349 119.987 26.0988 119.801 26.0988 119.591C26.0988 119.395 26.0406 119.23 25.9241 119.096C25.8105 118.963 25.6428 118.849 25.4213 118.755C25.2025 118.662 24.934 118.576 24.6159 118.5L23.6656 118.261C22.9298 118.082 22.3488 117.802 21.9227 117.422C21.4965 117.041 21.2849 116.528 21.2877 115.883C21.2849 115.355 21.4255 114.893 21.7096 114.498C21.9965 114.103 22.39 113.795 22.89 113.574C23.39 113.352 23.9582 113.241 24.5945 113.241C25.2423 113.241 25.8076 113.352 26.2906 113.574C26.7764 113.795 27.1542 114.103 27.4241 114.498C27.694 114.893 27.8332 115.351 27.8417 115.87H26.0732Z" fill="white"/>
</svg>
