<svg width="55" height="51" viewBox="0 0 55 51" fill="none" xmlns="http://www.w3.org/2000/svg">
<path fill-rule="evenodd" clip-rule="evenodd" d="M54.7504 34.0447C54.7504 43.3226 47.2292 50.8437 37.9514 50.8437H28.4838C28.19 50.8437 27.8999 50.8275 27.6145 50.7958C27.329 50.8275 27.039 50.8437 26.7451 50.8437H17.2246C7.976 50.8437 0.478517 43.3463 0.478516 34.0977L0.478516 17.5898C0.478515 8.34123 7.97599 0.843756 17.2246 0.843756L17.7879 0.843756C21.4591 0.843755 24.8545 2.02515 27.6145 4.02851C30.3744 2.02515 33.7698 0.84375 37.4411 0.84375L38.0043 0.84375C47.2529 0.84375 54.7504 8.34122 54.7504 17.5898V34.0447Z" fill="#FF6F31"/>
<path fill-rule="evenodd" clip-rule="evenodd" d="M22.0367 8.04582C20.7868 7.52808 19.4471 7.2616 18.0942 7.2616C16.7412 7.2616 15.4015 7.52808 14.1516 8.04582C12.9017 8.56356 11.7659 9.32243 10.8093 10.2791C9.8526 11.2358 9.09373 12.3715 8.57599 13.6214C8.05824 14.8714 7.79176 16.2111 7.79176 17.564H9.4854C9.4854 16.4335 9.70807 15.314 10.1407 14.2696C10.5733 13.2251 11.2074 12.2761 12.0068 11.4767C12.8062 10.6773 13.7553 10.0432 14.7997 9.61053C15.8442 9.1779 16.9636 8.95523 18.0942 8.95523C19.2247 8.95523 20.3441 9.1779 21.3886 9.61054C22.4331 10.0432 23.3821 10.6773 24.1815 11.4767C24.9809 12.2761 25.615 13.2251 26.0476 14.2696C26.4735 15.2977 26.6959 16.3984 26.7028 17.5109C25.6608 17.6358 24.6496 17.9618 23.7268 18.4742C22.5206 19.1438 21.5049 20.1096 20.7753 21.2805C20.0458 22.4514 19.6265 23.7888 19.5571 25.1667C19.5071 26.1575 19.6392 27.1458 19.9435 28.0834C19.5448 28.4716 19.2971 29.0142 19.2971 29.6146C19.2971 30.7948 20.2539 31.7516 21.4341 31.7516C22.6143 31.7516 23.571 30.7948 23.571 29.6146C23.571 28.4662 22.665 27.5293 21.5288 27.4797C21.3062 26.7618 21.2104 26.0078 21.2485 25.252C21.3035 24.1614 21.6354 23.1029 22.2128 22.1761C22.7902 21.2494 23.5942 20.4849 24.5488 19.9549C25.2197 19.5825 25.9494 19.3344 26.7029 19.2199V37.5516C26.2983 37.1981 25.8382 36.9124 25.3405 36.7062C24.8879 36.5188 24.4108 36.3998 23.9249 36.3526C23.6025 35.5813 22.8408 35.0392 21.9524 35.0392C20.7722 35.0392 19.8155 35.996 19.8155 37.1762C19.8155 38.3564 20.7722 39.3131 21.9524 39.3131C22.8194 39.3131 23.5658 38.7968 23.9009 38.055C24.1722 38.0932 24.4382 38.1657 24.6924 38.271C25.0875 38.4346 25.4466 38.6745 25.749 38.977C26.0514 39.2794 26.2913 39.6384 26.455 40.0336C26.6187 40.4287 26.7029 40.8522 26.7029 41.2799V45.0606H22.6391C22.1714 45.0606 21.7923 45.4397 21.7923 45.9074C21.7923 46.3751 22.1714 46.7542 22.6391 46.7542H32.4598C32.9275 46.7542 33.3066 46.3751 33.3066 45.9074C33.3066 45.4397 32.9275 45.0606 32.4598 45.0606H28.3966L28.3966 41.2799L28.3966 41.2759V40.4183L28.4024 40.4199C28.4383 40.2887 28.4824 40.1597 28.5347 40.0335C28.6984 39.6384 28.9383 39.2794 29.2407 38.9769C29.5431 38.6745 29.9022 38.4346 30.2973 38.2709C30.5516 38.1656 30.8177 38.0931 31.0891 38.0549C31.4243 38.7968 32.1707 39.3131 33.0377 39.3131C34.2179 39.3131 35.1746 38.3564 35.1746 37.1762C35.1746 35.996 34.2179 35.0392 33.0377 35.0392C32.1494 35.0392 31.3877 35.5812 31.0652 36.3525C30.5792 36.3997 30.1019 36.5187 29.6492 36.7062C29.1959 36.894 28.7739 37.1477 28.3966 37.4585V33.6658C29.5229 33.5645 30.6185 33.2289 31.6119 32.6774C32.8181 32.0078 33.8338 31.042 34.5633 29.8711C35.2929 28.7002 35.7121 27.3627 35.7816 25.9849C35.8468 24.6935 35.6026 23.4065 35.0711 22.2305C35.3892 21.8574 35.5813 21.3735 35.5813 20.8448C35.5813 19.6646 34.6245 18.7078 33.4443 18.7078C32.2641 18.7078 31.3074 19.6646 31.3074 20.8448C31.3074 22.025 32.2641 22.9817 33.4443 22.9817C33.48 22.9817 33.5154 22.9808 33.5506 22.9791C33.9554 23.896 34.1408 24.8961 34.0901 25.8996C34.0351 26.9901 33.7033 28.0487 33.1259 28.9755C32.5485 29.9022 31.7445 30.6666 30.7899 31.1966C30.0482 31.6084 29.2346 31.8681 28.3966 31.9635L28.3966 17.564V17.5639L28.3964 17.516C28.4027 16.4018 28.6251 15.2992 29.0516 14.2696C29.4842 13.2251 30.1184 12.2761 30.9178 11.4767C31.2102 11.1842 31.5227 10.9139 31.8525 10.6675C32.4166 10.7545 32.9719 10.898 33.5099 11.0964C34.5651 11.4857 35.5334 12.0789 36.3593 12.8423C36.9475 13.386 37.4554 14.0084 37.8691 14.6905C37.3619 15.3039 37.2193 16.1773 37.5748 16.9484C38.069 18.0202 39.3384 18.4884 40.4102 17.9943C41.482 17.5001 41.9502 16.2307 41.456 15.1589C41.0758 14.3343 40.2367 13.867 39.3818 13.9203C38.8749 13.0609 38.2443 12.2784 37.5089 11.5986C36.5196 10.6842 35.3599 9.97364 34.096 9.50745L34.0331 9.48449C34.984 9.13472 35.9901 8.95523 37.0051 8.95523C38.1356 8.95523 39.255 9.1779 40.2995 9.61053C41.344 10.0432 42.293 10.6773 43.0924 11.4767C43.8918 12.2761 44.5259 13.2251 44.9585 14.2696C45.3912 15.314 45.6138 16.4335 45.6138 17.564H47.3075C47.3075 16.2111 47.041 14.8714 46.5232 13.6214C46.0055 12.3715 45.2466 11.2358 44.29 10.2791C43.3333 9.32243 42.1976 8.56356 40.9476 8.04582C39.6977 7.52808 38.358 7.2616 37.0051 7.2616C35.6521 7.2616 34.3125 7.52808 33.0625 8.04582C32.4868 8.28428 31.9353 8.5739 31.4144 8.91043C31.3246 8.9028 31.2347 8.89635 31.1446 8.89109L31.1325 9.09924C30.6287 9.44878 30.1558 9.84343 29.7202 10.2791C28.8014 11.1978 28.0651 12.2817 27.5496 13.4733C27.0341 12.2817 26.2978 11.1978 25.3791 10.2791C24.4224 9.32243 23.2867 8.56356 22.0367 8.04582ZM19.2889 12.933C20.262 13.6008 20.5096 14.931 19.8418 15.9041C19.3282 16.6526 18.4226 16.9719 17.5891 16.7755C16.9445 17.5371 16.1911 18.2021 15.3516 18.7482C14.2223 19.4827 12.9594 19.9876 11.6351 20.2341C10.9246 20.3663 10.2039 20.4228 9.48499 20.4036V27.8716C9.88968 27.5181 10.3498 27.2322 10.8477 27.026C11.3003 26.8385 11.7774 26.7196 12.2632 26.6724C12.5857 25.901 13.3474 25.359 14.2357 25.359C15.4159 25.359 16.3727 26.3158 16.3727 27.496C16.3727 28.6762 15.4159 29.6329 14.2357 29.6329C13.3688 29.6329 12.6224 29.1166 12.2872 28.3747C12.016 28.413 11.75 28.4854 11.4958 28.5907C11.1006 28.7544 10.7416 28.9943 10.4392 29.2967C10.1367 29.5992 9.89684 29.9582 9.73316 30.3534C9.56949 30.7485 9.48524 31.172 9.48524 31.5997H9.48499V35.0391H9.48524C9.48524 35.4669 9.56949 35.8904 9.73316 36.2855C9.89684 36.6807 10.1367 37.0397 10.4392 37.3421C10.7416 37.6446 11.1006 37.8845 11.4958 38.0481C11.75 38.1534 12.016 38.2259 12.2872 38.2641C12.6224 37.5222 13.3688 37.006 14.2357 37.006C15.4159 37.006 16.3727 37.9627 16.3727 39.1429C16.3727 40.3231 15.4159 41.2799 14.2357 41.2799C13.3474 41.2799 12.5857 40.7378 12.2632 39.9665C11.7774 39.9192 11.3003 39.8003 10.8477 39.6128C10.247 39.3641 9.70129 38.9994 9.24159 38.5397C8.78189 38.08 8.41724 37.5343 8.16845 36.9336C7.91967 36.333 7.79162 35.6893 7.79161 35.0392H7.79135L7.79136 17.5641H9.48499V18.7092C10.1002 18.7289 10.7172 18.6822 11.3252 18.569C12.4309 18.3633 13.4853 17.9417 14.4281 17.3285C15.0994 16.8918 15.7048 16.3641 16.2275 15.7616C15.8307 15.0714 15.8372 14.1862 16.3178 13.4859C16.9856 12.5128 18.3158 12.2653 19.2889 12.933ZM45.3661 36.2855C45.5297 35.8904 45.614 35.4669 45.614 35.0392H45.6137L45.6137 30.058C45.3695 30.0622 45.1248 30.0484 44.8815 30.0164C44.237 29.9315 43.6155 29.7206 43.0524 29.3955C42.4894 29.0704 41.9959 28.6377 41.6002 28.1219C41.3594 27.8081 41.1576 27.4673 40.9986 27.107C40.3502 26.8832 39.8209 26.3518 39.63 25.6393C39.3246 24.4993 40.0011 23.3275 41.1411 23.0221C42.2811 22.7166 43.4528 23.3931 43.7583 24.5331C44.009 25.4686 43.5983 26.4255 42.813 26.9075C42.8544 26.9701 42.898 27.0312 42.9438 27.0909C43.2042 27.4302 43.5289 27.7149 43.8993 27.9288C44.2697 28.1426 44.6786 28.2814 45.1026 28.3372C45.2724 28.3596 45.4433 28.3685 45.6137 28.364L45.6137 17.5641H47.3074L47.3074 35.0391H47.3076C47.3076 35.6893 47.1796 36.333 46.9308 36.9336C46.682 37.5343 46.3173 38.08 45.8576 38.5397C45.3979 38.9994 44.8522 39.3641 44.2516 39.6128C43.8861 39.7643 43.5046 39.8709 43.1154 39.9313C42.7314 40.4997 42.081 40.8734 41.3434 40.8734C40.1632 40.8734 39.2064 39.9167 39.2064 38.7365C39.2064 37.5563 40.1632 36.5995 41.3434 36.5995C42.3119 36.5995 43.1299 37.2438 43.3922 38.1272C43.4634 38.1033 43.5339 38.077 43.6034 38.0481C43.9986 37.8845 44.3576 37.6446 44.6601 37.3421C44.9625 37.0397 45.2024 36.6807 45.3661 36.2855Z" fill="white"/>
</svg>
