<svg width="211" height="211" viewBox="0 0 211 211" fill="none" xmlns="http://www.w3.org/2000/svg">
<rect x="30.5469" y="90.5884" width="12.9456" height="55.0957" rx="6.47282" fill="#FFCC19"/>
<rect x="93.752" y="90.5884" width="12.9456" height="55.0957" rx="6.47282" fill="#FFCC19"/>
<rect x="62.1494" y="105.625" width="12.9456" height="40.0584" rx="6.47282" fill="#4F93F8"/>
<rect x="125.354" y="60.9111" width="12.9456" height="84.7728" rx="6.47282" fill="#4F93F8"/>
<rect x="156.957" y="90.5884" width="12.9456" height="55.0957" rx="6.47282" fill="#FFCC19"/>
<rect x="46.3486" y="98.6562" width="12.9456" height="47.0277" rx="6.47282" fill="#FFCC19"/>
<rect x="109.554" y="77.1711" width="12.9456" height="68.5126" rx="6.47282" fill="#FFCC19"/>
<rect x="77.9512" y="98.6562" width="12.9456" height="47.0277" rx="6.47282" fill="#FFCC19"/>
<rect x="141.156" y="77.1711" width="12.9456" height="68.5126" rx="6.47282" fill="#FFCC19"/>
<rect x="172.759" y="105.625" width="12.9456" height="40.0584" rx="6.47282" fill="#4F93F8"/>
<line x1="184.277" y1="159.321" x2="31.9748" y2="159.321" stroke="#FFCC19" stroke-width="2.85574" stroke-linecap="round" stroke-dasharray="11.42 11.42"/>
<line x1="184.277" y1="48.1788" x2="31.9748" y2="48.1789" stroke="#FFCC19" stroke-width="2.85574" stroke-linecap="round" stroke-dasharray="11.42 11.42"/>
<circle cx="179.847" cy="177.299" r="9.08826" fill="#4F93F8"/>
<line x1="179.231" y1="125.655" x2="179.231" y2="173.806" stroke="#4F93F8" stroke-width="2"/>
<line x1="68.6221" y1="125.655" x2="68.6221" y2="173.806" stroke="#4F93F8" stroke-width="2"/>
<line x1="131.17" y1="30.8279" x2="131.17" y2="78.9795" stroke="#4F93F8" stroke-width="2"/>
<rect x="131.17" y="16.3145" width="12.2627" height="12.2627" transform="rotate(45 131.17 16.3145)" fill="#4F93F8"/>
<rect x="68.2803" y="169.046" width="12.2627" height="12.2627" transform="rotate(45 68.2803 169.046)" fill="#4F93F8"/>
</svg>
