<svg width="211" height="211" viewBox="0 0 211 211" fill="none" xmlns="http://www.w3.org/2000/svg">
<rect x="99.2432" y="114.144" width="17.8035" height="17.8035" transform="rotate(-180 99.2432 114.144)" fill="#FFCC19"/>
<rect x="78.7051" y="114.144" width="17.8035" height="17.8035" transform="rotate(-180 78.7051 114.144)" fill="#FFCC19"/>
<rect x="58.1641" y="114.144" width="17.8035" height="17.8035" transform="rotate(-180 58.1641 114.144)" fill="#FFCC19"/>
<rect x="99.2432" y="134.717" width="17.8035" height="17.8035" transform="rotate(-180 99.2432 134.717)" fill="#FFCC19"/>
<rect x="78.7051" y="134.717" width="17.8035" height="17.8035" rx="8.90177" transform="rotate(-180 78.7051 134.717)" fill="#4F93F8"/>
<rect x="58.1641" y="134.717" width="17.8035" height="17.8035" transform="rotate(-180 58.1641 134.717)" fill="#FFCC19"/>
<rect x="99.2441" y="94.0991" width="17.8035" height="17.8035" rx="8.90177" transform="rotate(-180 99.2441 94.0991)" fill="#4F93F8"/>
<rect x="78.7061" y="94.1001" width="17.8035" height="17.8035" transform="rotate(-180 78.7061 94.1001)" fill="#FFCC19"/>
<rect x="58.165" y="94.0991" width="17.8035" height="17.8035" transform="rotate(-180 58.165 94.0991)" fill="#FFCC19"/>
<path d="M43.4626 153.589V153.589C43.4626 146.783 48.9801 141.265 55.7861 141.265L85.4561 141.265" stroke="#4F93F8" stroke-width="2"/>
<circle cx="43.8658" cy="162.017" r="9.08826" transform="rotate(-180 43.8658 162.017)" fill="#4F93F8"/>
<path d="M98.5032 153.589V153.589C98.5032 146.783 92.9858 141.265 86.1797 141.265L56.5097 141.265" stroke="#4F93F8" stroke-width="2"/>
<circle cx="9.08826" cy="9.08826" r="9.08826" transform="matrix(1 0 0 -1 89.0117 171.105)" fill="#4F93F8"/>
<circle cx="69.8024" cy="162.017" r="9.08826" transform="rotate(-180 69.8024 162.017)" fill="#4F93F8"/>
<line x1="69.8027" y1="162.017" x2="69.8027" y2="122.816" stroke="#4F93F8" stroke-width="2"/>
<path d="M63.822 57.4863V57.4863C63.822 64.2924 69.3394 69.8099 76.1455 69.8099L105.815 69.8099" stroke="#4F93F8" stroke-width="2"/>
<circle cx="9.08826" cy="9.08826" r="9.08826" transform="matrix(-1 0 0 1 73.3135 39.9697)" fill="#4F93F8"/>
<path d="M118.863 57.4863V57.4863C118.863 64.2924 113.345 69.8099 106.539 69.8099L76.8691 69.8099" stroke="#4F93F8" stroke-width="2"/>
<circle cx="118.459" cy="49.058" r="9.08826" fill="#4F93F8"/>
<circle cx="9.08826" cy="9.08826" r="9.08826" transform="matrix(-1 0 0 1 99.25 39.9697)" fill="#4F93F8"/>
<line y1="-1" x2="39.2012" y2="-1" transform="matrix(4.37114e-08 1 1 -4.37114e-08 91.1621 49.0581)" stroke="#4F93F8" stroke-width="2"/>
<rect x="119.289" y="75.8267" width="17.8035" height="17.8035" transform="rotate(90 119.289 75.8267)" fill="#FFCC19"/>
<rect x="119.289" y="96.3647" width="17.8035" height="17.8035" transform="rotate(90 119.289 96.3647)" fill="#FFCC19"/>
<rect x="119.289" y="116.906" width="17.8035" height="17.8035" transform="rotate(90 119.289 116.906)" fill="#FFCC19"/>
<rect x="139.862" y="75.8267" width="17.8035" height="17.8035" transform="rotate(90 139.862 75.8267)" fill="#FFCC19"/>
<rect x="139.862" y="96.3647" width="17.8035" height="17.8035" rx="8.90177" transform="rotate(90 139.862 96.3647)" fill="#4F93F8"/>
<rect x="139.862" y="116.906" width="17.8035" height="17.8035" transform="rotate(90 139.862 116.906)" fill="#FFCC19"/>
<rect x="99.2441" y="75.8262" width="17.8035" height="17.8035" rx="8.90177" transform="rotate(90 99.2441 75.8262)" fill="#4F93F8"/>
<rect x="99.2451" y="96.3643" width="17.8035" height="17.8035" transform="rotate(90 99.2451 96.3643)" fill="#FFCC19"/>
<rect x="99.2441" y="116.905" width="17.8035" height="17.8035" transform="rotate(90 99.2441 116.905)" fill="#FFCC19"/>
<path d="M158.733 131.608V131.608C151.927 131.608 146.41 126.09 146.41 119.284L146.41 89.6142" stroke="#4F93F8" stroke-width="2"/>
<circle cx="167.162" cy="131.204" r="9.08826" transform="rotate(90 167.162 131.204)" fill="#4F93F8"/>
<path d="M158.733 76.5671V76.5671C151.927 76.5671 146.41 82.0845 146.41 88.8906L146.41 118.561" stroke="#4F93F8" stroke-width="2"/>
<circle cx="9.08826" cy="9.08826" r="9.08826" transform="matrix(5.18985e-09 -1 -1 -5.18985e-09 176.25 86.0586)" fill="#4F93F8"/>
<circle cx="167.162" cy="105.268" r="9.08826" transform="rotate(90 167.162 105.268)" fill="#4F93F8"/>
<line x1="167.162" y1="105.268" x2="127.961" y2="105.268" stroke="#4F93F8" stroke-width="2"/>
</svg>
