<svg width="211" height="211" viewBox="0 0 211 211" fill="none" xmlns="http://www.w3.org/2000/svg">
<rect x="33.208" y="66.9797" width="17.8035" height="17.8035" fill="#FFCC19"/>
<rect x="94.8262" y="66.9797" width="17.8035" height="17.8035" rx="8.90177" fill="#4F93F8"/>
<rect x="53.7471" y="66.98" width="17.8035" height="17.8035" fill="#FFCC19"/>
<rect x="115.367" y="66.9797" width="17.8035" height="17.8035" fill="#FFCC19"/>
<rect x="74.2871" y="66.9797" width="17.8035" height="17.8035" fill="#FFCC19"/>
<rect x="135.905" y="66.9797" width="17.8035" height="17.8035" fill="#FFCC19"/>
<rect x="156.446" y="66.9797" width="17.8035" height="17.8035" fill="#FFCC19"/>
<rect x="33.208" y="107.598" width="17.8035" height="17.8035" fill="#FFCC19"/>
<rect x="94.8262" y="107.598" width="17.8035" height="17.8035" fill="#FFCC19"/>
<rect x="53.7471" y="107.598" width="17.8035" height="17.8035" rx="8.90177" fill="#4F93F8"/>
<rect x="115.367" y="107.598" width="17.8035" height="17.8035" fill="#FFCC19"/>
<rect x="74.2871" y="107.598" width="17.8035" height="17.8035" fill="#FFCC19"/>
<rect x="135.905" y="107.598" width="17.8035" height="17.8035" fill="#FFCC19"/>
<rect x="156.446" y="107.598" width="17.8035" height="17.8035" fill="#FFCC19"/>
<rect x="33.208" y="87.0244" width="17.8035" height="17.8035" fill="#FFCC19"/>
<rect x="94.8262" y="87.0244" width="17.8035" height="17.8035" fill="#FFCC19"/>
<rect x="53.7471" y="87.0244" width="17.8035" height="17.8035" fill="#FFCC19"/>
<rect x="115.367" y="87.0244" width="17.8035" height="17.8035" fill="#FFCC19"/>
<rect x="74.2871" y="87.0244" width="17.8035" height="17.8035" fill="#FFCC19"/>
<rect x="135.905" y="87.0244" width="17.8035" height="17.8035" rx="8.90177" fill="#4F93F8"/>
<rect x="156.446" y="87.0244" width="17.8035" height="17.8035" fill="#FFCC19"/>
<rect x="33.208" y="127.642" width="17.8035" height="17.8035" fill="#FFCC19"/>
<rect x="94.8262" y="127.642" width="17.8035" height="17.8035" fill="#FFCC19"/>
<rect x="53.7471" y="127.642" width="17.8035" height="17.8035" fill="#FFCC19"/>
<rect x="115.367" y="127.642" width="17.8035" height="17.8035" rx="8.90177" fill="#4F93F8"/>
<rect x="74.2871" y="127.642" width="17.8035" height="17.8035" fill="#FFCC19"/>
<rect x="135.905" y="127.642" width="17.8035" height="17.8035" fill="#FFCC19"/>
<rect x="156.446" y="127.642" width="17.8035" height="17.8035" fill="#FFCC19"/>
<path d="M136.192 178.537V178.537C129.386 178.537 123.869 173.02 123.869 166.214L123.869 136.544" stroke="#4F93F8" stroke-width="2"/>
<path d="M103.535 68.7283L103.535 48.0806C103.535 41.2745 98.0174 35.7571 91.2113 35.7571V35.7571L62.6748 35.7571" stroke="#4F93F8" stroke-width="2"/>
<circle cx="144.62" cy="48.1991" r="9.08826" fill="#4F93F8"/>
<circle cx="62.8356" cy="171.322" r="9.08826" transform="rotate(-180 62.8356 171.322)" fill="#4F93F8"/>
<circle cx="60.1" cy="36.7579" r="9.08826" fill="#4F93F8"/>
<circle cx="144.621" cy="178.134" r="9.08826" transform="rotate(90 144.621 178.134)" fill="#4F93F8"/>
<line x1="144.62" y1="48.199" x2="144.62" y2="96.3506" stroke="#4F93F8" stroke-width="2"/>
<line x1="62.8359" y1="171.323" x2="62.8359" y2="123.171" stroke="#4F93F8" stroke-width="2"/>
</svg>
