<svg width="211" height="211" viewBox="0 0 211 211" fill="none" xmlns="http://www.w3.org/2000/svg">
<path d="M141.226 140.197V140.197C134.419 140.197 128.902 134.679 128.902 127.873L128.902 116.668" stroke="#4F93F8" stroke-width="2"/>
<path d="M109.975 141.197L98.7697 141.197C91.9636 141.197 86.4462 146.714 86.4462 153.52V153.52L86.4462 182.057" stroke="#4F93F8" stroke-width="2"/>
<path d="M98.2107 89.4638L98.2107 112.398C98.2107 119.204 92.6932 124.722 85.8871 124.722V124.722L57.3506 124.722" stroke="#4F93F8" stroke-width="2"/>
<circle cx="177.723" cy="116.595" r="9.08826" transform="rotate(90 177.723 116.595)" fill="#4F93F8"/>
<circle cx="177.223" cy="59.1715" r="9.08826" transform="rotate(90 177.223 59.1715)" fill="#4F93F8"/>
<circle cx="40.0875" cy="59.1715" r="9.08826" transform="rotate(90 40.0875 59.1715)" fill="#4F93F8"/>
<circle cx="149.654" cy="140.123" r="9.08826" transform="rotate(90 149.654 140.123)" fill="#4F93F8"/>
<circle cx="86.4459" cy="187.552" r="9.08826" transform="rotate(-180 86.4459 187.552)" fill="#4F93F8"/>
<circle cx="9.08826" cy="9.08826" r="9.08826" transform="matrix(1 8.74228e-08 8.74228e-08 -1 100.887 178.464)" fill="#4F93F8"/>
<circle cx="9.08826" cy="9.08826" r="9.08826" transform="matrix(1 8.74228e-08 8.74228e-08 -1 41.458 133.875)" fill="#4F93F8"/>
<line x1="174.61" y1="117.595" x2="110.475" y2="117.595" stroke="#4F93F8" stroke-width="2"/>
<line x1="174.11" y1="60.1711" x2="40.0879" y2="60.1711" stroke="#4F93F8" stroke-width="2"/>
<path d="M110.475 167.194L110.475 78.1522" stroke="#4F93F8" stroke-width="2"/>
<rect x="63.6162" y="30.0964" width="90.7217" height="59.7583" rx="15" fill="#FFCC19"/>
<path d="M129.831 59.9756L98.5508 78.0353L98.5508 41.9159L129.831 59.9756Z" fill="#4F93F8"/>
</svg>
