<svg width="211" height="211" viewBox="0 0 211 211" fill="none" xmlns="http://www.w3.org/2000/svg">
<path d="M65.372 161.329V161.329C65.372 154.523 70.8894 149.005 77.6955 149.005L88.9004 149.005" stroke="#4F93F8" stroke-width="2"/>
<path d="M139.845 178.147V178.147C133.039 178.147 127.521 172.629 127.521 165.823L127.521 136.153" stroke="#4F93F8" stroke-width="2"/>
<path d="M135.845 33.1333V33.1333C129.039 33.1333 123.521 38.6507 123.521 45.4568L123.521 75.1268" stroke="#4F93F8" stroke-width="2"/>
<path d="M67.8281 103.824L47.1805 103.824C40.3744 103.824 34.857 109.342 34.857 116.148V116.148L34.857 144.684" stroke="#4F93F8" stroke-width="2"/>
<path d="M133.683 96.7931L153.317 96.7931C160.124 96.7931 165.641 91.2757 165.641 84.4696V84.4696L165.641 65.98" stroke="#4F93F8" stroke-width="2"/>
<path d="M142.333 117.023L161.968 117.023C168.774 117.023 174.291 122.54 174.291 129.346V129.346L174.291 147.836" stroke="#4F93F8" stroke-width="2"/>
<circle cx="88.9" cy="173.05" r="9.08826" transform="rotate(-180 88.9 173.05)" fill="#4F93F8"/>
<circle cx="9.08826" cy="9.08826" r="9.08826" transform="matrix(-1 8.74228e-08 8.74228e-08 1 91.9883 29.1414)" fill="#4F93F8"/>
<circle cx="9.08826" cy="9.08826" r="9.08826" transform="matrix(-1 8.74228e-08 8.74228e-08 1 61.4307 40.1414)" fill="#4F93F8"/>
<circle cx="109.433" cy="190.361" r="9.08826" transform="rotate(-180 109.433 190.361)" fill="#4F93F8"/>
<circle cx="9.08826" cy="9.08826" r="9.08826" transform="matrix(-1 8.74228e-08 8.74228e-08 1 115.521 11.8303)" fill="#4F93F8"/>
<circle cx="35.8578" cy="147.259" r="9.08826" transform="rotate(-90 35.8578 147.259)" fill="#4F93F8"/>
<circle cx="31.6989" cy="85.9459" r="9.08826" transform="rotate(90 31.6989 85.9459)" fill="#4F93F8"/>
<circle cx="148.273" cy="177.743" r="9.08826" transform="rotate(90 148.273 177.743)" fill="#4F93F8"/>
<circle cx="65.316" cy="169.757" r="9.08826" transform="rotate(-180 65.316 169.757)" fill="#4F93F8"/>
<circle cx="9.08826" cy="9.08826" r="9.08826" transform="matrix(-4.37114e-08 -1 -1 4.37114e-08 153.361 42.6248)" fill="#4F93F8"/>
<circle cx="165.644" cy="70.0214" r="9.08826" fill="#4F93F8"/>
<circle cx="9.08826" cy="9.08826" r="9.08826" transform="matrix(1 -1.74846e-07 -1.74846e-07 -1 165.206 152.883)" fill="#4F93F8"/>
<line x1="88.3037" y1="172.169" x2="88.3037" y2="130.578" stroke="#4F93F8" stroke-width="2"/>
<line y1="-1" x2="41.5911" y2="-1" transform="matrix(4.37114e-08 1 1 -4.37114e-08 83.3037 39.1108)" stroke="#4F93F8" stroke-width="2"/>
<line y1="-1" x2="41.5911" y2="-1" transform="matrix(4.37114e-08 1 1 -4.37114e-08 53.7461 44.1108)" stroke="#4F93F8" stroke-width="2"/>
<line x1="108.837" y1="186.48" x2="108.837" y2="130.578" stroke="#4F93F8" stroke-width="2"/>
<line y1="-1" x2="55.9019" y2="-1" transform="matrix(4.37114e-08 1 1 -4.37114e-08 106.837 24.8)" stroke="#4F93F8" stroke-width="2"/>
<line x1="100.24" y1="85.9456" x2="38.9189" y2="85.9456" stroke="#4F93F8" stroke-width="2"/>
<rect x="66.5186" y="64.0291" width="75.8145" height="75.8145" rx="16.6417" fill="#FFCC19"/>
<path d="M80.9871 112.494C80.9871 115.58 83.4883 118.081 86.5736 118.081C89.659 118.081 92.1602 115.58 92.1602 112.494C92.1602 109.409 89.659 106.908 86.5736 106.908C83.4883 106.908 80.9871 109.409 80.9871 112.494Z" fill="#4F93F8"/>
<path d="M112.387 89.5684C112.387 92.6538 114.888 95.155 117.973 95.155C121.058 95.155 123.56 92.6538 123.56 89.5684C123.56 86.4831 121.058 83.9819 117.973 83.9819C114.888 83.9819 112.387 86.4831 112.387 89.5684Z" fill="#4F93F8"/>
<path fill-rule="evenodd" clip-rule="evenodd" d="M92.5682 83.3711C95.7214 81.6205 99.2685 80.7019 102.875 80.7019V85.1295C100.021 85.1295 97.213 85.8565 94.7173 87.2421C92.2216 88.6276 90.1199 90.626 88.6104 93.0488C87.1009 95.4716 86.2333 98.2389 86.0895 101.09C85.9458 103.941 86.5305 106.781 87.7886 109.344L83.8142 111.295C82.2247 108.058 81.4859 104.469 81.6676 100.867C81.8492 97.2648 82.9453 93.7685 84.8525 90.7075C86.7596 87.6464 89.415 85.1216 92.5682 83.3711Z" fill="#4F93F8"/>
<path fill-rule="evenodd" clip-rule="evenodd" d="M113.182 120.502C110.029 122.252 106.481 123.171 102.875 123.171L102.875 118.743C105.729 118.743 108.537 118.016 111.033 116.63C113.528 115.245 115.63 113.247 117.14 110.824C118.649 108.401 119.517 105.634 119.66 102.783C119.804 99.9318 119.22 97.0912 117.961 94.5289L121.936 92.5775C123.525 95.8149 124.264 99.4038 124.082 103.006C123.901 106.608 122.805 110.104 120.898 113.165C118.99 116.226 116.335 118.751 113.182 120.502Z" fill="#4F93F8"/>
<circle cx="102.976" cy="120.957" r="2.21433" fill="#4F93F8"/>
<circle cx="102.976" cy="82.9162" r="2.21433" fill="#4F93F8"/>
</svg>
