<svg width="859" height="331" viewBox="0 0 859 331" fill="none" xmlns="http://www.w3.org/2000/svg">
<path d="M840.458 275.275C837.4 275.275 834.368 274.74 831.361 273.67C828.354 272.6 826.188 271.402 824.863 270.077L828.915 262.815C829.985 263.783 831.641 264.803 833.884 265.873C836.177 266.892 838.369 267.402 840.458 267.402C843.159 267.402 845.351 266.765 847.032 265.491C848.765 264.216 849.631 262.458 849.631 260.216C849.631 258.483 849.173 256.98 848.255 255.706C847.338 254.432 846.217 253.387 844.892 252.571C843.567 251.705 841.681 250.66 839.235 249.437C836.33 248.01 834.342 246.94 833.272 246.226C828.329 242.914 825.857 238.327 825.857 232.466C825.857 227.625 827.462 223.93 830.673 221.382C833.884 218.783 837.935 217.483 842.828 217.483C848.077 217.483 852.536 218.987 856.206 221.993L852.154 228.95C851.186 227.931 849.81 227.064 848.026 226.351C846.293 225.586 844.433 225.204 842.446 225.204C839.897 225.204 837.884 225.79 836.406 226.962C834.979 228.084 834.266 229.765 834.266 232.008C834.266 233.588 834.725 235.015 835.642 236.289C836.559 237.512 837.706 238.582 839.082 239.499C840.509 240.417 842.42 241.538 844.815 242.863C847.109 244.137 848.867 245.156 850.09 245.921C851.313 246.634 852.46 247.501 853.53 248.52C855.008 249.845 856.206 251.425 857.123 253.259C858.04 255.094 858.499 257.107 858.499 259.298C858.499 262.713 857.709 265.618 856.129 268.013C854.6 270.408 852.46 272.218 849.708 273.441C847.007 274.664 843.924 275.275 840.458 275.275Z" fill="black"/>
<path d="M773.954 238.123L774.183 244.239V274.511H765.621V218.248H766.691L799.715 255.094L799.41 248.673V218.324H807.971V274.511H806.825L773.954 238.123Z" fill="black"/>
<path d="M720.21 275.275C715.114 275.275 710.4 274.103 706.068 271.759C701.787 269.364 698.372 265.975 695.824 261.592C693.276 257.209 692.002 252.113 692.002 246.303C692.002 240.442 693.276 235.346 695.824 231.014C698.372 226.631 701.787 223.268 706.068 220.923C710.4 218.579 715.114 217.407 720.21 217.407C725.306 217.407 729.995 218.579 734.276 220.923C738.608 223.268 742.048 226.631 744.596 231.014C747.144 235.346 748.418 240.442 748.418 246.303C748.418 252.113 747.144 257.209 744.596 261.592C742.048 265.975 738.608 269.364 734.276 271.759C729.995 274.103 725.306 275.275 720.21 275.275ZM720.21 267.555C723.727 267.555 726.937 266.739 729.842 265.108C732.747 263.427 735.04 261.006 736.722 257.846C738.455 254.635 739.321 250.813 739.321 246.379C739.321 241.895 738.455 238.072 736.722 234.913C735.04 231.702 732.747 229.281 729.842 227.65C726.988 226.02 723.778 225.204 720.21 225.204C716.643 225.204 713.407 226.02 710.502 227.65C707.597 229.281 705.303 231.702 703.622 234.913C701.94 238.072 701.099 241.895 701.099 246.379C701.099 250.813 701.965 254.635 703.698 257.846C705.431 261.006 707.75 263.427 710.655 265.108C713.61 266.739 716.796 267.555 720.21 267.555Z" fill="black"/>
<path d="M665.25 218.324H673.812V274.511H665.25V218.324Z" fill="black"/>
<path d="M625.36 225.816H610.988V218.324H648.37V225.816H633.845V274.511H625.36V225.816Z" fill="black"/>
<path d="M577.232 275.275C570.199 275.275 565.102 273.16 561.943 268.931C558.783 264.701 557.203 258.56 557.203 250.507V218.324H565.765V250.66C565.765 256.623 566.657 260.904 568.441 263.503C570.224 266.051 573.155 267.325 577.232 267.325C581.309 267.325 584.214 266.077 585.946 263.579C587.73 261.031 588.622 256.725 588.622 250.66V218.324H597.26V250.507C597.26 258.509 595.578 264.65 592.215 268.931C588.902 273.16 583.908 275.275 577.232 275.275Z" fill="black"/>
<path d="M517.25 218.324H525.888V266.867H542.018V274.511H517.25V218.324Z" fill="black"/>
<path d="M471.839 275.275C466.743 275.275 462.029 274.103 457.697 271.759C453.416 269.364 450.001 265.975 447.453 261.592C444.905 257.209 443.631 252.113 443.631 246.303C443.631 240.442 444.905 235.346 447.453 231.014C450.001 226.631 453.416 223.268 457.697 220.923C462.029 218.579 466.743 217.407 471.839 217.407C476.935 217.407 481.624 218.579 485.905 220.923C490.237 223.268 493.677 226.631 496.225 231.014C498.773 235.346 500.047 240.442 500.047 246.303C500.047 252.113 498.773 257.209 496.225 261.592C493.677 265.975 490.237 269.364 485.905 271.759C481.624 274.103 476.935 275.275 471.839 275.275ZM471.839 267.555C475.355 267.555 478.566 266.739 481.471 265.108C484.376 263.427 486.669 261.006 488.351 257.846C490.084 254.635 490.95 250.813 490.95 246.379C490.95 241.895 490.084 238.072 488.351 234.913C486.669 231.702 484.376 229.281 481.471 227.65C478.617 226.02 475.406 225.204 471.839 225.204C468.272 225.204 465.035 226.02 462.131 227.65C459.226 229.281 456.932 231.702 455.25 234.913C453.569 238.072 452.728 241.895 452.728 246.379C452.728 250.813 453.594 254.635 455.327 257.846C457.06 261.006 459.378 263.427 462.283 265.108C465.239 266.739 468.424 267.555 471.839 267.555Z" fill="black"/>
<path d="M411.112 275.275C408.055 275.275 405.022 274.74 402.015 273.67C399.009 272.6 396.843 271.402 395.518 270.077L399.569 262.815C400.639 263.783 402.296 264.803 404.538 265.873C406.831 266.892 409.023 267.402 411.112 267.402C413.813 267.402 416.005 266.765 417.687 265.491C419.419 264.216 420.286 262.458 420.286 260.216C420.286 258.483 419.827 256.98 418.91 255.706C417.992 254.432 416.871 253.387 415.546 252.571C414.221 251.705 412.335 250.66 409.889 249.437C406.984 248.01 404.997 246.94 403.927 246.226C398.983 242.914 396.511 238.327 396.511 232.466C396.511 227.625 398.117 223.93 401.327 221.382C404.538 218.783 408.59 217.483 413.482 217.483C418.731 217.483 423.191 218.987 426.86 221.993L422.808 228.95C421.84 227.931 420.464 227.064 418.68 226.351C416.948 225.586 415.087 225.204 413.1 225.204C410.552 225.204 408.539 225.79 407.061 226.962C405.634 228.084 404.92 229.765 404.92 232.008C404.92 233.588 405.379 235.015 406.296 236.289C407.214 237.512 408.36 238.582 409.736 239.499C411.163 240.417 413.074 241.538 415.47 242.863C417.763 244.137 419.521 245.156 420.744 245.921C421.967 246.634 423.114 247.501 424.184 248.52C425.662 249.845 426.86 251.425 427.777 253.259C428.695 255.094 429.153 257.107 429.153 259.298C429.153 262.713 428.363 265.618 426.784 268.013C425.255 270.408 423.114 272.218 420.362 273.441C417.661 274.664 414.578 275.275 411.112 275.275Z" fill="black"/>
<path d="M772.303 142.22H796.918V149.711H780.788V165.23H793.784V172.874H780.788V190.839H799.441V198.407H772.303V142.22Z" fill="black"/>
<path d="M728.975 142.22H753.59V149.711H737.46V165.23H750.456V172.874H737.46V190.839H756.113V198.407H728.975V142.22Z" fill="black"/>
<path d="M702.803 198.407L691.489 177.155C689.145 177.257 687.056 177.308 685.221 177.308H683.081V198.407H674.748V142.22H687.514C693.987 142.22 699.312 143.57 703.491 146.271C707.67 148.921 709.76 153.253 709.76 159.267C709.76 163.038 708.868 166.3 707.084 169.052C705.351 171.753 702.752 173.842 699.287 175.32L712.665 198.407H702.803ZM688.508 170.352C693.502 170.352 696.917 169.281 698.752 167.141C700.637 164.949 701.58 162.35 701.58 159.343C701.58 152.667 697.121 149.329 688.202 149.329H683.081V170.352H688.508Z" fill="black"/>
<path d="M635.85 149.711H621.479V142.22H658.86V149.711H644.336V198.407H635.85V149.711Z" fill="black"/>
<path d="M567.934 142.22H581.464C592.778 142.22 600.677 144.895 605.162 150.247C609.698 155.598 611.966 161.968 611.966 169.358C611.966 174.505 610.998 179.27 609.061 183.653C607.124 187.985 603.914 191.527 599.429 194.279C594.995 197.031 589.16 198.407 581.923 198.407H567.934V142.22ZM582.84 190.839C589.873 190.839 594.97 188.851 598.129 184.876C601.34 180.85 602.945 175.805 602.945 169.74C602.945 163.828 601.34 159.012 598.129 155.292C594.919 151.572 589.822 149.711 582.84 149.711H576.495V190.839H582.84Z" fill="black"/>
<path d="M514.348 162.019L514.577 168.135V198.407H506.016V142.143H507.086L540.11 178.99L539.804 172.568V142.22H548.366V198.407H547.219L514.348 162.019Z" fill="black"/>
<path d="M476.895 142.22H485.456V198.407H476.895V142.22Z" fill="black"/>
<path d="M414.323 172.186L410.807 164.236L409.201 172.186L404.003 198.407H395.518L407.137 142.22H408.055L423.496 172.568L428.083 182.736L432.67 172.568L447.806 142.22H448.647L460.725 198.407H452.316L446.659 172.186L444.977 164.236L441.92 172.186L428.312 198.407H427.854L414.323 172.186Z" fill="black"/>
<path d="M667.507 63.3434H672.617V121.793H667.507V63.3434ZM655.677 77.2734H682.977V82.2434H655.677V77.2734ZM667.787 79.1634L671.077 80.5634C668.277 90.4334 662.677 102.683 657.287 109.193C656.797 107.723 655.537 105.553 654.627 104.363C659.667 98.7634 665.267 87.8434 667.787 79.1634ZM678.707 58.5134L681.927 62.7834C675.487 65.3034 665.827 67.1934 657.847 68.3134C657.567 67.1234 656.867 65.3734 656.307 64.1834C664.217 62.9234 673.387 60.8934 678.707 58.5134ZM672.337 83.1534C674.157 85.0434 680.877 93.5134 682.417 95.6134L679.127 99.7434C677.447 96.3834 671.987 88.0534 669.887 85.3234L672.337 83.1534ZM706.007 57.5334H711.187V121.863H706.007V57.5334ZM682.137 103.103L719.377 97.0834L720.217 101.983L682.907 108.073L682.137 103.103ZM687.807 65.5134L691.167 62.4334C695.367 65.0934 700.337 69.0834 702.717 72.0234L699.077 75.4534C696.837 72.5134 691.937 68.3134 687.807 65.5134ZM685.007 83.7134L688.297 80.6334C692.847 83.3634 698.377 87.5634 700.967 90.5734L697.467 94.0734C694.877 90.9934 689.557 86.5834 685.007 83.7134Z" fill="black"/>
<path d="M625.227 58.6534H630.407V115.003C630.407 118.503 629.497 119.973 627.257 120.813C624.947 121.653 621.027 121.723 614.517 121.723C614.237 120.393 613.397 118.083 612.627 116.683C617.527 116.893 622.007 116.823 623.337 116.753C624.667 116.683 625.227 116.263 625.227 115.003V58.6534ZM611.507 65.7234H616.547V104.643H611.507V65.7234ZM578.747 83.1534H598.907V87.8434H578.747V83.1534ZM576.507 83.1534H581.617V113.183C581.617 115.843 582.247 116.333 585.817 116.333C587.497 116.333 595.897 116.333 598.067 116.333C601.287 116.333 601.847 114.863 602.197 106.463C603.317 107.373 605.417 108.213 606.817 108.493C606.187 118.223 604.647 120.953 598.417 120.953C596.807 120.953 586.867 120.953 585.397 120.953C578.607 120.953 576.507 119.413 576.507 113.253V83.1534ZM597.017 83.1534H602.057C602.057 83.1534 601.987 84.6234 601.917 85.2534C601.287 97.4334 600.587 102.123 598.977 103.873C597.857 105.133 596.737 105.553 594.987 105.693C593.517 105.833 590.787 105.833 588.057 105.693C587.917 104.293 587.427 102.403 586.657 101.143C589.317 101.423 591.767 101.493 592.747 101.493C593.657 101.493 594.217 101.353 594.777 100.793C595.757 99.6034 596.457 95.4034 597.017 83.9934V83.1534ZM587.357 64.0434L590.857 61.1034C596.947 67.2634 604.577 75.5934 608.147 80.8434L604.367 84.4134C600.867 79.0934 593.377 70.3434 587.357 64.0434ZM588.477 57.6734L593.307 59.1434C588.827 69.4334 581.407 79.3734 572.307 86.4434C571.467 85.3934 569.577 83.5734 568.457 82.8034C577.277 76.4334 584.767 66.7034 588.477 57.6734Z" fill="black"/>
<path d="M500.768 79.1634L505.178 80.7734C501.398 84.4834 495.378 88.1234 490.338 90.5034C489.638 89.5934 487.888 87.8434 486.838 87.0734C492.018 85.1834 497.478 82.3134 500.768 79.1634ZM525.268 81.6134L528.698 78.9534C533.528 81.1234 539.688 84.5534 542.978 87.0034L539.408 90.0834C536.328 87.5634 530.168 83.9934 525.268 81.6134ZM496.638 93.4434H534.438V122.143H529.258V97.1534H501.678V122.143H496.638V93.4434ZM499.858 116.053H531.358V119.763H499.858V116.053ZM499.858 108.563H531.358V111.853H499.858V108.563ZM499.928 101.213H531.428V104.503H499.928V101.213ZM497.618 75.5934H533.248V79.2334H497.618V75.5934ZM515.118 61.6634H539.198V64.8834H515.118V61.6634ZM486.768 68.4534H544.168V79.3034H538.918V72.0234H491.878V79.3034H486.768V68.4534ZM515.258 85.6034C508.958 91.8334 497.478 98.0634 485.928 101.563C485.438 100.513 484.318 98.6934 483.408 97.6434C495.238 94.3534 506.718 88.1234 512.598 81.6134H517.288C525.128 88.9634 537.238 94.4234 547.948 96.8034C546.898 97.9234 545.778 99.8134 545.148 101.073C534.858 98.2734 522.468 92.3234 515.258 85.6034ZM512.458 57.5334H517.708V70.4134H512.458V57.5334Z" fill="black"/>
<path d="M412.638 85.1834V109.963H407.528V90.0834H397.728V85.1834H412.638ZM412.638 107.653C415.928 112.833 422.158 115.213 430.208 115.563C437.838 115.843 453.588 115.633 461.848 115.073C461.288 116.333 460.378 118.853 460.168 120.463C452.468 120.743 437.978 120.883 430.208 120.603C421.108 120.253 414.808 117.803 410.328 112.273C406.968 115.283 403.398 118.293 399.618 121.373L396.818 115.983C400.178 113.743 404.308 110.663 407.878 107.653H412.638ZM398.498 62.4334L402.348 59.2834C406.968 62.2234 412.218 66.7734 414.668 70.2034L410.538 73.6334C408.298 70.2734 403.048 65.5134 398.498 62.4334ZM417.328 62.7834H460.518V67.6134H417.328V62.7834ZM433.078 77.7634H453.028V82.5934H433.078V77.7634ZM451.208 77.7634H456.388C456.388 77.7634 456.318 79.3734 456.248 80.0734C455.408 98.0634 454.498 104.713 452.538 106.953C451.278 108.493 449.948 108.983 447.848 109.053C446.028 109.263 442.598 109.263 439.028 109.053C438.888 107.583 438.328 105.553 437.558 104.223C441.058 104.503 444.348 104.573 445.608 104.573C446.728 104.573 447.428 104.503 448.058 103.803C449.528 102.193 450.368 95.8234 451.208 78.6734V77.7634ZM430.768 64.9534H436.158C435.388 83.3634 433.498 100.793 418.588 110.033C417.958 108.843 416.348 107.093 415.088 106.183C429.018 97.9934 430.208 81.7534 430.768 64.9534Z" fill="black"/>
<path fill-rule="evenodd" clip-rule="evenodd" d="M657.332 64.0169C664.997 62.7485 673.615 60.7912 678.707 58.5134L681.927 62.7834C681.609 62.9076 681.284 63.0302 680.952 63.1514C678.764 63.9483 676.264 64.6783 673.617 65.3365C673.286 65.4189 672.952 65.5001 672.617 65.5802V77.2734H682.977V82.2434H672.617V83.4533C672.89 83.7535 673.23 84.1423 673.617 84.5966C676.263 87.7028 681.135 93.8652 682.417 95.6134L679.127 99.7434C678.983 99.4559 678.812 99.132 678.617 98.7784C677.458 96.6726 675.477 93.5115 673.617 90.693C673.277 90.1788 672.942 89.676 672.617 89.1931V121.793H667.507V90.7994C667.183 91.5906 666.849 92.3802 666.507 93.1646C663.988 98.9299 660.99 104.421 658.014 108.282C657.771 108.597 657.529 108.901 657.287 109.193C657.178 108.868 657.032 108.508 656.86 108.133C656.256 106.811 655.335 105.29 654.627 104.363C658.902 99.6132 663.58 91.0352 666.439 83.2434C666.462 83.1819 666.484 83.1205 666.507 83.0592C666.606 82.7862 666.703 82.5142 666.798 82.2434H655.677V77.2734H667.507V66.6902C667.174 66.7561 666.84 66.8209 666.507 66.8846C663.554 67.4487 660.6 67.9269 657.847 68.3134C657.634 67.411 657.181 66.1865 656.729 65.1285C656.586 64.7913 656.442 64.471 656.307 64.1834C656.646 64.1293 656.988 64.0738 657.332 64.0169ZM666.507 67.9026C663.593 68.4558 660.689 68.9243 657.986 69.3037L657.082 69.4305L656.873 68.5424C656.617 67.4524 655.951 65.7755 655.402 64.6092L654.835 63.4052L656.149 63.1958C664.052 61.937 673.108 59.9225 678.298 57.6006L679.026 57.2753L683.519 63.2341L682.291 63.7146C679.777 64.6983 676.793 65.5845 673.617 66.3666V76.2734H683.977V83.2434H673.769C676.247 86.0681 681.836 93.13 683.223 95.022L683.675 95.6385L678.933 101.592L678.232 100.191C677.379 98.4846 675.509 95.4351 673.617 92.5193V122.793H666.507V95.605C663.947 101.148 660.982 106.298 658.057 109.831L656.908 111.219L656.338 109.51C655.892 108.172 654.696 106.1 653.832 104.971L653.328 104.311L653.883 103.694C657.993 99.1284 662.539 90.8475 665.373 83.2434H654.677V76.2734H666.507V67.9026ZM705.007 56.5334H712.187V97.2327L720.195 95.9381L721.373 102.808L712.187 104.307V122.863H705.007V105.479L682.073 109.223L680.996 102.275L705.007 98.3934V56.5334ZM706.007 99.2447L682.137 103.103L682.906 108.072L682.907 108.073L706.007 104.303V121.863H711.187V103.457L720.217 101.983L719.377 97.0834L711.187 98.4073V57.5334H706.007V99.2447ZM686.198 65.6311L691.055 61.1791L691.702 61.5886C695.943 64.2749 701.016 68.3332 703.494 71.3942L704.078 72.1151L698.954 76.9428L698.281 76.0594C696.135 73.2426 691.335 69.1137 687.246 66.3411L686.198 65.6311ZM683.378 83.8684L688.164 79.3877L688.811 79.7759C693.401 82.5298 699.034 86.7944 701.725 89.9212L702.33 90.6244L697.403 95.5514L696.701 94.717C694.197 91.7388 688.965 87.3927 684.473 84.5592L683.378 83.8684ZM687.807 65.5134C688.085 65.7018 688.366 65.8966 688.65 66.0969C692.224 68.6186 696.184 72.0167 698.446 74.6735C698.674 74.9416 698.885 75.2021 699.077 75.4534L702.717 72.0234C700.337 69.0834 695.367 65.0934 691.167 62.4334L687.807 65.5134ZM685.007 83.7134C685.293 83.8938 685.582 84.0803 685.873 84.2722C689.849 86.8919 694.231 90.513 696.805 93.3212C697.041 93.5793 697.262 93.8305 697.467 94.0734L700.967 90.5734C698.377 87.5634 692.847 83.3634 688.297 80.6334L685.007 83.7134Z" fill="black"/>
<path fill-rule="evenodd" clip-rule="evenodd" d="M624.229 57.6534H631.409V115.003C631.409 116.816 631.178 118.262 630.547 119.393C629.891 120.568 628.88 121.273 627.61 121.75L627.6 121.753C626.303 122.225 624.626 122.458 622.522 122.582C620.406 122.706 617.769 122.723 614.519 122.723H613.707L613.54 121.929C613.28 120.697 612.475 118.479 611.752 117.165L610.896 115.608L612.671 115.684C617.546 115.893 621.994 115.823 623.286 115.755C623.902 115.722 624.079 115.612 624.119 115.576C624.128 115.569 624.149 115.55 624.173 115.479C624.2 115.397 624.229 115.251 624.229 115.003V57.6534ZM610.509 64.7234H617.549V105.643H610.509V64.7234ZM576.509 83.1534V113.253C576.509 119.413 578.609 120.953 585.398 120.953H598.419C604.649 120.953 606.189 118.223 606.819 108.493C605.761 108.282 604.304 107.751 603.171 107.111C602.805 106.904 602.472 106.686 602.199 106.463C602.181 106.878 602.163 107.276 602.145 107.658C601.787 115.005 601.13 116.333 598.069 116.333H585.819C582.249 116.333 581.618 115.843 581.618 113.183V87.8434H596.808C596.787 88.185 596.766 88.5182 596.744 88.8434C596.232 96.6461 595.605 99.7899 594.779 100.793C594.219 101.353 593.659 101.493 592.749 101.493C591.918 101.493 590.033 101.443 587.859 101.258C587.467 101.224 587.065 101.186 586.659 101.143C586.853 101.462 587.03 101.82 587.187 102.201C587.654 103.327 587.954 104.647 588.059 105.693C590.789 105.833 593.519 105.833 594.989 105.693C596.739 105.553 597.859 105.133 598.979 103.873C600.589 102.123 601.289 97.4334 601.919 85.2534C601.949 84.9814 601.979 84.5527 602.004 84.1534C602.036 83.628 602.059 83.1534 602.059 83.1534H576.509ZM601.555 82.1534C598.478 78.0017 594.012 72.7337 589.778 68.1C586.702 73.1631 582.957 77.9564 578.705 82.1534H601.555ZM589.073 67.3326C589.253 67.0342 589.43 66.7349 589.605 66.4347C589.84 66.6888 590.077 66.9454 590.314 67.2041C594.821 72.124 599.633 77.8086 602.796 82.1534C602.895 82.2896 602.992 82.4245 603.088 82.558C603.338 82.906 603.576 83.2447 603.802 83.5728C604.001 83.8614 604.19 84.1419 604.368 84.4134L608.149 80.8434C604.92 76.0953 598.37 68.8278 592.642 62.9248C592.394 62.6692 592.148 62.4161 591.903 62.1659C592.06 61.8479 592.215 61.5293 592.367 61.2102C592.548 60.8289 592.726 60.4468 592.899 60.0642C593.038 59.7576 593.175 59.4507 593.309 59.1434L588.479 57.6734C584.888 66.4135 577.756 75.8094 569.304 82.1796C569.023 82.3909 568.742 82.5989 568.459 82.8034C568.703 82.9717 568.985 83.1901 569.284 83.4397C570.354 84.3321 571.652 85.6229 572.309 86.4434C572.308 86.4436 572.309 86.4433 572.309 86.4434C573.4 85.5955 574.468 84.7059 575.509 83.7797C575.741 83.5728 575.972 83.364 576.202 83.1534C576.305 83.0597 576.407 82.9656 576.509 82.8711C576.764 82.6341 577.018 82.3948 577.27 82.1534C581.835 77.7829 585.836 72.7089 589.073 67.3326ZM575.509 85.1102C574.663 85.8426 573.8 86.5509 572.922 87.2331L572.144 87.838L571.528 87.0681C570.739 86.0825 568.919 84.3336 567.892 83.6275L566.723 82.8236L567.873 81.9927C576.543 75.7314 583.915 66.1503 587.554 57.2934L587.899 56.4519L594.673 58.5135L594.225 59.5426C593.872 60.355 593.5 61.1652 593.111 61.972C598.904 67.9274 605.649 75.3889 608.975 80.2811L609.454 80.9855L604.188 85.9591L603.533 84.963C603.366 84.7089 603.189 84.4466 603.004 84.1769C602.98 84.5751 602.949 85.0269 602.916 85.3333C602.601 91.4086 602.267 95.6636 601.804 98.629C601.349 101.54 600.745 103.426 599.72 104.544C599.083 105.26 598.411 105.773 597.621 106.119C596.843 106.461 596.005 106.615 595.076 106.69C593.531 106.836 590.748 106.833 588.007 106.692L587.149 106.648L587.063 105.793C586.933 104.485 586.472 102.755 585.805 101.665L584.749 99.9369L586.763 100.149C589.384 100.425 591.799 100.493 592.749 100.493C593.162 100.493 593.409 100.46 593.586 100.402C593.731 100.355 593.868 100.28 594.033 100.124C594.148 99.9677 594.318 99.6378 594.502 98.9951C594.696 98.3191 594.885 97.3773 595.066 96.0873C595.312 94.3288 595.536 91.9719 595.742 88.8434H582.618V113.183C582.618 114.546 582.814 114.831 582.982 114.957C583.097 115.044 583.325 115.152 583.81 115.227C584.292 115.302 584.938 115.333 585.819 115.333H598.069C598.82 115.333 599.262 115.243 599.557 115.088C599.813 114.953 600.058 114.716 600.286 114.166C600.525 113.588 600.716 112.727 600.865 111.435C601.013 110.154 601.112 108.518 601.199 106.422L601.282 104.431L602.829 105.687C603.288 106.06 603.998 106.454 604.796 106.795C605.587 107.133 606.396 107.389 607.015 107.513L607.873 107.685L607.816 108.558C607.658 111.007 607.44 113.054 607.096 114.744C606.753 116.431 606.274 117.822 605.555 118.92C604.041 121.234 601.672 121.953 598.419 121.953H585.398C582.011 121.953 579.442 121.59 577.764 120.179C576.027 118.719 575.509 116.384 575.509 113.253V85.1102ZM613.778 116.728C618.215 116.882 622.113 116.818 623.339 116.753C624.669 116.683 625.229 116.263 625.229 115.003V58.6534H630.409V115.003C630.409 118.503 629.499 119.973 627.259 120.813C624.949 121.653 621.029 121.723 614.519 121.723C614.299 120.682 613.737 119.041 613.134 117.705C612.966 117.334 612.796 116.987 612.629 116.683C613.015 116.7 613.399 116.715 613.778 116.728ZM611.509 65.7234V104.643H616.549V65.7234H611.509Z" fill="black"/>
<path fill-rule="evenodd" clip-rule="evenodd" d="M500.96 79.2334L505.178 80.7734C504.917 81.0296 504.645 81.2855 504.364 81.5407C500.571 84.9802 495.03 88.2878 490.338 90.5034C489.814 89.8215 488.7 88.6679 487.732 87.8085C487.409 87.521 487.102 87.2664 486.838 87.0734C487.202 86.9408 487.566 86.8034 487.932 86.6614C492.177 85.0111 496.495 82.742 499.556 80.2334C499.959 79.9039 500.339 79.5703 500.695 79.2334H497.618V75.5934H533.248V79.2334H529.314C529.994 79.5465 530.696 79.8818 531.409 80.2334C535.241 82.1231 539.388 84.4832 542.143 86.403C542.438 86.6086 542.717 86.8091 542.978 87.0034L539.408 90.0834C536.534 87.7317 530.977 84.4655 526.266 82.1055C525.928 81.9366 525.596 81.7723 525.268 81.6134L528.337 79.2334H500.96ZM525.416 80.2334H506.615L507.009 80.3773L505.879 81.4871C501.986 85.3079 495.854 89.0047 490.765 91.4076L490.037 91.7516L489.546 91.1131C488.899 90.2727 487.216 88.5903 486.247 87.8798L484.74 86.7746L486.496 86.134C490.583 84.6424 494.794 82.5499 497.928 80.2334H496.618V74.5934H534.248V80.2334H533.626C537.379 82.1745 541.193 84.4273 543.576 86.2014L544.576 86.9461L539.425 91.3894L538.775 90.8574C535.785 88.4112 529.708 84.8814 524.831 82.5129L523.384 81.8096L525.416 80.2334ZM497.123 92.4434C496.962 92.5219 496.8 92.5999 496.638 92.6776C496.307 92.8361 495.974 92.9929 495.638 93.1478C492.086 94.7881 488.299 96.2172 484.458 97.3435C484.109 97.446 483.759 97.546 483.408 97.6434C483.623 97.891 483.849 98.1814 484.076 98.4945C484.812 99.509 485.554 100.761 485.928 101.563C489.21 100.569 492.485 99.3543 495.638 97.9819C495.973 97.8362 496.306 97.6887 496.638 97.5395V122.143H501.678V119.763H529.258V122.143H534.438V97.316C534.771 97.4578 535.105 97.5975 535.438 97.7348C538.733 99.0919 542.037 100.227 545.148 101.073C545.636 100.099 546.416 98.747 547.231 97.6664C547.469 97.3501 547.711 97.057 547.948 96.8034C547.581 96.7217 547.212 96.6365 546.841 96.5476C543.106 95.6519 539.227 94.3926 535.438 92.8191C535.141 92.6958 534.845 92.5705 534.549 92.4434C528.083 89.6626 521.935 85.97 517.288 81.6134H512.598C509.074 85.5148 503.539 89.3156 497.123 92.4434ZM504.629 93.4434H526.466C525.872 93.1158 525.285 92.7823 524.707 92.4434C521.113 90.3367 517.851 88.0198 515.258 85.6034C515.258 85.6035 515.258 85.6033 515.258 85.6034C512.905 87.9308 509.828 90.2584 506.295 92.4434C505.75 92.7803 505.195 93.1138 504.629 93.4434ZM508.162 92.4434H522.767C519.988 90.7273 517.437 88.8863 515.278 86.9722C513.291 88.8331 510.876 90.6792 508.162 92.4434ZM501.678 116.053H529.258V111.853H501.678V116.053ZM502.678 112.853V115.053H528.258V112.853H502.678ZM529.258 101.213V97.1534H501.678V101.213H529.258ZM528.258 100.213V98.1534H502.678V100.213H528.258ZM501.678 108.563H529.258V104.503H501.678V108.563ZM502.678 105.503V107.563H528.258V105.503H502.678ZM535.438 98.8152C538.65 100.121 541.86 101.215 544.886 102.038L545.676 102.253L546.043 101.521C546.658 100.29 547.727 98.5017 548.678 97.4873L549.878 96.2077L548.165 95.8272C537.578 93.4745 525.648 88.0794 517.972 80.8839L517.684 80.6134H512.154L511.856 80.9431C506.148 87.2629 494.865 93.4193 483.14 96.68L481.617 97.1036L482.653 98.2983C483.493 99.2683 484.565 101.007 485.022 101.986L485.389 102.772L486.218 102.52C489.394 101.558 492.569 100.39 495.638 99.0713V123.143H502.678V120.763H528.258V123.143H535.438V98.8152ZM517.708 61.6634H539.198V64.8834H517.708V68.4534H544.168V79.3034H538.918V72.0234H491.878V79.3034H486.768V68.4534H512.458V57.5334H517.708V61.6634ZM511.458 67.4534V56.5334H518.708V60.6634H540.198V65.8834H518.708V67.4534H545.168V80.3034H537.918V73.0234H492.878V80.3034H485.768V67.4534H511.458Z" fill="black"/>
<path fill-rule="evenodd" clip-rule="evenodd" d="M412.638 85.1835H397.728V90.0835H407.528V107.947C407.199 108.223 406.865 108.498 406.528 108.774C403.297 111.414 399.762 114.021 396.818 115.983L399.618 121.373C399.883 121.158 400.147 120.942 400.41 120.727C403.621 118.098 406.678 115.517 409.581 112.94C409.831 112.718 410.08 112.496 410.328 112.273C410.328 112.273 410.328 112.274 410.328 112.273C410.54 112.535 410.756 112.789 410.975 113.036C415.41 118.03 421.538 120.27 430.208 120.603C437.978 120.883 452.468 120.743 460.168 120.463C460.331 119.22 460.91 117.433 461.424 116.104C461.575 115.712 461.721 115.36 461.848 115.073C461.489 115.098 461.116 115.121 460.73 115.144C452.235 115.651 437.507 115.831 430.208 115.563C422.912 115.246 417.11 113.261 413.638 109.035C413.28 108.598 412.946 108.138 412.638 107.653V85.1835ZM413.638 107.357C416.711 111.968 422.467 114.225 430.249 114.564C437.847 114.843 453.558 114.633 461.781 114.076L463.436 113.964L462.762 115.48C462.215 116.711 461.351 119.127 461.16 120.593L461.05 121.432L460.205 121.463C452.489 121.743 437.974 121.884 430.172 121.603L430.17 121.603C421.333 121.263 414.902 118.965 410.229 113.702C407.079 116.497 403.752 119.295 400.25 122.149L399.297 122.925L395.518 115.649L396.264 115.151C399.374 113.078 403.157 110.273 406.528 107.479V91.0835H396.728V84.1835H413.638V105.876L414.581 105.321C421.273 101.387 424.926 95.5228 426.983 88.5156C428.746 82.5071 429.324 75.7036 429.63 68.6135H416.328V61.7835H461.518V68.6135H436.988C436.843 71.3588 436.655 74.0847 436.38 76.7635H457.433L457.387 77.8069L457.387 77.8083L457.387 77.8119L457.384 77.8792L457.375 78.0732C457.367 78.2366 457.356 78.4619 457.343 78.7095C457.318 79.1853 457.283 79.7682 457.246 80.1458C456.826 89.1273 456.388 95.3197 455.804 99.5562C455.512 101.677 455.179 103.339 454.783 104.632C454.391 105.909 453.917 106.891 453.302 107.599C452.593 108.463 451.825 109.077 450.904 109.473C450.003 109.861 449.02 110.012 447.922 110.052C446.005 110.267 442.529 110.261 438.97 110.052L438.114 110.001L438.033 109.148C437.903 107.79 437.376 105.905 436.693 104.725L435.738 103.075L437.638 103.227C441.108 103.504 444.371 103.573 445.608 103.573C446.716 103.573 447.001 103.483 447.315 103.135L447.32 103.129C447.522 102.908 447.8 102.399 448.088 101.346C448.369 100.32 448.631 98.8897 448.878 96.9403C449.269 93.8489 449.614 89.5293 449.949 83.5935H435.449C433.475 94.7868 429.191 104.639 419.115 110.883L418.205 111.447L417.705 110.501C417.446 110.013 416.948 109.349 416.336 108.678C415.729 108.012 415.062 107.398 414.503 106.994L413.638 106.37V107.357ZM434.432 83.5935C434.491 83.2615 434.548 82.9281 434.604 82.5935H451.006C450.988 82.9317 450.969 83.265 450.95 83.5935C450.19 97.074 449.378 102.358 448.058 103.803C447.428 104.503 446.728 104.573 445.608 104.573C444.491 104.573 441.776 104.518 438.734 104.311C438.346 104.284 437.954 104.255 437.558 104.223C437.74 104.537 437.91 104.89 438.066 105.265C438.569 106.48 438.921 107.93 439.028 109.053C442.598 109.263 446.028 109.263 447.848 109.053C449.948 108.983 451.278 108.493 452.538 106.953C454.498 104.713 455.408 98.0635 456.248 80.0735C456.281 79.7488 456.313 79.2283 456.339 78.7635C456.368 78.2263 456.388 77.7635 456.388 77.7635H435.266C435.303 77.4311 435.339 77.0977 435.373 76.7635C435.649 74.0968 435.839 71.3718 435.986 68.6135C436.004 68.2806 436.021 67.9473 436.038 67.6135H460.518V62.7835H417.328V67.6135H430.672C430.659 67.9472 430.646 68.2806 430.631 68.6135C429.983 83.7042 428.097 97.8897 416.004 105.622C415.705 105.813 415.4 106 415.088 106.183C415.353 106.374 415.633 106.602 415.916 106.854C416.742 107.59 417.594 108.531 418.168 109.355C418.334 109.594 418.477 109.822 418.588 110.033C418.875 109.856 419.156 109.676 419.433 109.492C428.531 103.463 432.534 94.2256 434.432 83.5935ZM398.498 62.4335C398.781 62.6248 399.066 62.8225 399.353 63.026C403.326 65.8418 407.645 69.7569 409.956 72.8169C410.168 73.0968 410.362 73.3694 410.538 73.6335L414.668 70.2035C412.218 66.7735 406.968 62.2235 402.348 59.2835L398.498 62.4335ZM396.826 62.5093L402.275 58.0515L402.885 58.4398C407.567 61.4194 412.931 66.0511 415.482 69.6222L416.022 70.3788L410.323 75.1126L409.706 74.1882C407.567 70.9798 402.435 66.3057 397.938 63.2616L396.826 62.5093Z" fill="black"/>
<path fill-rule="evenodd" clip-rule="evenodd" d="M358.448 220.148C358.448 281.294 308.879 330.864 247.732 330.864L185.016 330.864C183.101 330.864 181.212 330.759 179.352 330.555C177.492 330.759 175.602 330.864 173.688 330.864H110.623C49.669 330.864 0.255867 281.451 0.255864 220.496L0.255859 111.231C0.255857 50.2769 49.669 0.863706 110.623 0.863703L114.655 0.863703C138.821 0.863702 161.174 8.63097 179.352 21.8053C197.53 8.63097 219.882 0.863692 244.049 0.863693L248.081 0.863693C309.035 0.863696 358.448 50.2768 358.448 111.231V220.148Z" fill="#FF6F31"/>
<path d="M185.517 298.585C185.517 301.99 182.756 304.75 179.352 304.75C175.947 304.75 173.187 301.99 173.187 298.585L185.517 298.585ZM173.187 298.585L173.187 111.518L185.517 111.518L185.517 298.585L173.187 298.585Z" fill="white"/>
<path d="M54.5371 226.854L54.5371 111.518" stroke="white" stroke-width="12.3299"/>
<path d="M211.76 298.585H146.943" stroke="white" stroke-width="12.3299" stroke-linecap="round"/>
<path d="M304.164 226.854L304.164 111.518" stroke="white" stroke-width="12.3299"/>
<path d="M81.6217 253.939C78.0649 253.939 74.5429 253.238 71.2569 251.877C67.9708 250.516 64.985 248.521 62.47 246.006C59.955 243.491 57.9599 240.505 56.5988 237.219C55.2377 233.933 54.5371 230.411 54.5371 226.854" stroke="white" stroke-width="12.3299"/>
<path d="M152.267 240.959C155.824 240.959 159.346 241.659 162.632 243.02C165.918 244.381 168.904 246.376 171.419 248.892C173.934 251.407 175.929 254.392 177.29 257.678C178.651 260.964 179.352 264.486 179.352 268.043" stroke="white" stroke-width="12.3299"/>
<path d="M205.716 247.345C202.159 247.345 198.637 248.046 195.351 249.407C192.065 250.768 189.079 252.763 186.564 255.278C184.048 257.793 182.053 260.779 180.692 264.065C180.258 265.115 179.89 266.188 179.592 267.278" stroke="white" stroke-width="12.3299"/>
<path d="M81.6217 177.07C78.0649 177.07 74.5429 177.77 71.2569 179.131C67.9708 180.492 64.985 182.487 62.47 185.002C59.955 187.517 57.9599 190.503 56.5988 193.789C55.2377 197.075 54.5371 200.597 54.5371 204.154" stroke="white" stroke-width="12.3299"/>
<path d="M304.164 226.854C304.164 230.411 303.463 233.933 302.102 237.219C300.741 240.505 298.746 243.491 296.231 246.006C293.716 248.521 290.73 250.516 287.444 251.878C284.158 253.239 280.636 253.939 277.079 253.939L267.799 253.939" stroke="white" stroke-width="12.3299"/>
<path d="M267.801 168.32C268.722 171.756 270.31 174.976 272.475 177.798C274.64 180.62 277.34 182.988 280.42 184.766C283.501 186.544 286.901 187.699 290.427 188.163C293.954 188.627 297.537 188.392 300.973 187.472" stroke="white" stroke-width="12.3299"/>
<path d="M113.145 97.7245C108.529 104.45 102.634 110.201 95.7965 114.649C88.9586 119.097 81.3117 122.154 73.2923 123.646C67.2659 124.768 61.1179 124.989 55.0478 124.312" stroke="white" stroke-width="12.3299"/>
<circle cx="14.1039" cy="14.1039" r="14.1039" transform="matrix(0.824539 0.565805 0.565805 -0.824539 97.334 96.2326)" fill="white"/>
<path d="M258.217 96.6492C254.134 89.5873 248.574 83.4718 241.854 78.6517C235.135 73.8316 227.387 70.4014 219.053 68.557C212.79 67.1709 206.289 66.7007 199.761 67.1518" stroke="white" stroke-width="12.3299"/>
<circle cx="263.114" cy="101.55" r="14.1039" transform="rotate(-24.7533 263.114 101.55)" fill="white"/>
<path d="M54.5379 111.518C54.5379 103.323 56.1521 95.2079 59.2883 87.6364C62.4245 80.0648 67.0214 73.1852 72.8164 67.3902C78.6114 61.5951 85.4911 56.9983 93.0626 53.8621C100.634 50.7258 108.749 49.1116 116.945 49.1116C125.14 49.1116 133.255 50.7258 140.827 53.8621C148.398 56.9983 155.278 61.5951 161.073 67.3902C166.868 73.1852 171.465 80.0649 174.601 87.6364C177.737 95.2079 179.352 103.323 179.352 111.518" stroke="white" stroke-width="12.3299"/>
<path d="M179.351 111.518C179.351 103.323 177.737 95.2079 174.6 87.6363C171.464 80.0648 166.867 73.1851 161.072 67.3901C155.277 61.5951 148.398 56.9982 140.826 53.862C133.254 50.7258 125.139 49.1116 116.944 49.1116C108.749 49.1116 100.633 50.7258 93.0619 53.862C85.4903 56.9982 78.6107 61.5951 72.8156 67.3901C67.0206 73.1851 62.4238 80.0648 59.2875 87.6363C56.1513 95.2079 54.5371 103.323 54.5371 111.518" stroke="white" stroke-width="12.3299"/>
<path d="M304.165 111.518C304.165 103.323 302.551 95.2079 299.415 87.6364C296.279 80.0648 291.682 73.1852 285.887 67.3902C280.092 61.5951 273.212 56.9983 265.64 53.8621C258.069 50.7258 249.954 49.1116 241.758 49.1116C233.563 49.1116 225.448 50.7258 217.876 53.8621C210.305 56.9983 203.425 61.5951 197.63 67.3902C191.835 73.1852 187.238 80.0649 184.102 87.6364C180.966 95.2079 179.352 103.323 179.352 111.518" stroke="white" stroke-width="12.3299"/>
<ellipse cx="14.1039" cy="14.1039" rx="14.1039" ry="14.1039" transform="matrix(-1 0 0 1 153.09 176.948)" fill="white"/>
<ellipse cx="14.1039" cy="14.1039" rx="14.1039" ry="14.1039" transform="matrix(-1 0 0 1 232.359 119.067)" fill="white"/>
<ellipse cx="265.26" cy="161.168" rx="14.1039" ry="14.1039" fill="white"/>
<ellipse cx="14.1039" cy="14.1039" rx="14.1039" ry="14.1039" transform="matrix(-1 0 0 1 232.359 233.242)" fill="white"/>
<ellipse cx="265.26" cy="253.939" rx="14.1039" ry="14.1039" fill="white"/>
<ellipse cx="14.1039" cy="14.1039" rx="14.1039" ry="14.1039" transform="matrix(-1 0 0 1 107.305 239.835)" fill="white"/>
<ellipse cx="140.686" cy="240.959" rx="14.1039" ry="14.1039" fill="white"/>
<ellipse cx="14.1039" cy="14.1039" rx="14.1039" ry="14.1039" transform="matrix(-1 0 0 1 107.305 162.966)" fill="white"/>
<path d="M180.141 116.376C171.985 116.376 163.964 118.453 156.833 122.412C149.702 126.371 143.697 132.08 139.384 139.003C135.072 145.925 132.593 153.832 132.182 161.977C131.771 170.123 133.442 178.239 137.036 185.56" stroke="white" stroke-width="12.3299"/>
<path d="M180.142 212.417C188.298 212.417 196.319 210.339 203.45 206.38C210.581 202.422 216.586 196.712 220.899 189.79C225.212 182.867 227.69 174.961 228.101 166.815C228.512 158.67 226.841 150.554 223.247 143.232" stroke="white" stroke-width="12.3299"/>
<path d="M358.489 1.13351L362.838 21.2877H358.91L356.806 11.234L350.914 21.6151L344.788 11.2808L342.871 21.2877H338.989L343.011 1.13351H343.245L350.914 14.367L358.302 1.13351H358.489ZM329.31 21.2877V4.87444H324.166V1.13351H338.615V4.87444H333.425V21.2877H329.31Z" fill="black"/>
</svg>
